<svg width="360" height="510" viewBox="0 0 360 510" fill="none" xmlns="http://www.w3.org/2000/svg">
<path fill-rule="evenodd" clip-rule="evenodd" d="M51 288.38C64.33 283.04 86.33 279.04 117 276.38C117 276.38 135.44 266.43 172 261.38C173.04 261.23 179.5 253.38 208 248.38C224 248.38 229 244.5 238 253.38C241.53 239.85 257.13 236.8 267 238.38C273.9 239.48 278.3 244.31 279 246.38C283 258.38 300 251.38 309 258.38C286 264.38 286 265.38 277 269.38C261 283.38 246 300.38 230 300.38C214 304.38 197.17 305.71 179.5 304.38C178.5 308.38 176 311.04 172 312.38C166 314.38 171 303.38 168 300.38C165 297.38 165 310.38 151 318.38C150 304.38 146 308.38 146 300.38C146 292.38 150 313.38 129 318.38C115 321.71 97.33 322.38 76 320.38C102 311.71 117.33 304.04 122 297.38C117 297.38 104 296.38 101 288.38C87 283.88 70.33 283.88 51 288.38Z" fill="#596475"/>
</svg>
