<svg width="371" height="510" viewBox="0 0 371 510" fill="none" xmlns="http://www.w3.org/2000/svg">
<path fill-rule="evenodd" clip-rule="evenodd" d="M313 286C305 283 306 284 296 282C288.4 278.72 291 271 275 269C258.9 270.03 260 283 244 282C233.57 281.35 231 275 223 271C215 267 210 266 204 259C191 217 202.73 249.44 201 200C200.73 192.44 195 156 200 146C208 143 204.84 132.2 200 124C168 90 159.78 65.97 140 45C136 44 145 57 138 52C129.2 46.92 131 38 115 30C116 35 119 42 117 45C112 42 103 22 97 22C98 26 105 33 105 45C105 49 91 39 96 44C101 49 103 57 105 63C112.25 76.18 127 86 127 85C124 84 110 73 101 74C103 79 109 81 111 91C109 93 111 94 103 91C107 110 117 119 138 132C140.6 136.24 126.9 127.82 124 131C121.4 133.82 125.67 139.6 129 146C138.17 163.6 147.32 164.92 149 176C148 180 139.23 174.74 135 178C132.73 179.74 139.75 183.74 139 188C138.25 192.24 129.78 189.68 131 194C133.48 196.98 129 206 130 211C131 216 134 217 134 222C134 227 141 220 142 228C147 232 141 232 134 240C139 245 144 244 142 254C140 264 135 260 130 266C125 273 127 277 120 283C111 291 105 287 89 299C76 306 75 301 59 312C77 314 95 324 127 317C132 319 122 322 125 324C139 325 141 327 148 324C144 327 137.38 332.7 141 333C149.53 333.74 164.38 332.05 171 333C179.4 334.2 183.75 338 198 338C205.7 338 214.25 329.82 219 331C226.3 332.8 225 333.93 236 331C255.33 325.85 260 322 275 312C283 300 288 303 295 291C306 289 313 289 313 286Z" fill="#596475"/>
</svg>
