<svg width="371" height="510" viewBox="0 0 371 510" fill="none" xmlns="http://www.w3.org/2000/svg">
<path fill-rule="evenodd" clip-rule="evenodd" d="M303 256C292 255 291 252 279 250C276 244 275 245 269 243C255 243 248 250 240 255C216 252 209 254 196 257C150 269 153 269 126 280C80 307 87 310 68 320C91 326 99 317 115 313C108.33 315.67 106.33 319 109 323C115.67 320.33 120 319.33 122 320C117 322 112.3 330.57 117 330C144 328 147.7 315.73 163 315C159 320 157 323 159 328C171 325 170 326 177 324C175 330 174 330 177 339C185.5 341 190 334 190 334C194 338 190 345 190 354C201 354 201 356 205 354C203 362 207 362 210 368C214 360 217 363 224 356C222 369 229 368 230 377C240 368 241 366 243 356C239 371 245 373 248 384C252 377 255 377 256 368C257 373 259.98 375.87 261 374C264 364 264.32 365.88 265 368C262 381 267 384 270 395C277 383 275 377 275 376C277 391 290 384 303 409C307 395 287 371 280 336C276 313 277 308 266 293C263 286 256 285 253 286C261 282 260 278 265 271C280 269 276 266 280 261C279 261 285 257 303 256Z" fill="#596475"/>
</svg>
