<svg width="360" height="510" viewBox="0 0 360 510" fill="none" xmlns="http://www.w3.org/2000/svg">
<path fill-rule="evenodd" clip-rule="evenodd" d="M280 273C280 275.07 270 276 264 278C255 279 256 286 250 285C244 284 245 293 231 299C233 310 252 308 267 318C296 348.62 285 337 304 381C318 409 322 411 331 438C330 439 320 437 317 431C316 436 312 432 313 438C308 437 305 430 301 427C297 426 302 434 299 435C295 435 294 427 290 427C286 428 291 433 288 434C255 404 245 413 245 398C237 408 235 396 226 401C222 396 220 391 224 384C223 379 217 389 213 387C211.67 381 214 374.33 220 367C213.33 373.67 206 377 198 377C199 367 197 370.5 203 361C197 368.5 190 369 184 367C179.57 364.9 188 359 186 355.5C178 355.5 163.24 355.2 162 352C158.74 343.6 170 333 166 327C162.88 322.33 154 336 151 324C151 312 146.33 307 137 309C128.33 307.67 117.67 307.67 105 309C86 311 78 304 47 304C57 299 56 291 74 291C53 288 64 281 29 278C59 270 61 278 83 285C151 278 105 270 177 263C191 261 213 259 235 265C240 263 241 260 250 259C258 259 262.67 262.67 264 270C274.67 270.72 280 271.72 280 273Z" fill="#596475"/>
</svg>
