<svg width="371" height="510" viewBox="0 0 371 510" fill="none" xmlns="http://www.w3.org/2000/svg">
<path fill-rule="evenodd" clip-rule="evenodd" d="M295.2 274C295.2 271.44 290.2 270 282.2 267C277.95 263.87 282.2 259 272.2 257C255.2 257 261.17 265.98 251.2 269C241.2 268 242.2 267 230.2 270C226.05 271.04 226.3 259.2 224.2 257C221.23 253.94 219.2 254 214.2 249C211.2 238 220.2 225 217.2 204C215.86 194.68 212.52 182.44 208.2 171C205.75 157.9 206.2 161 195.2 148C174.2 120 158.2 111 148.2 81C143.24 76.44 147.52 93.44 143.2 92C135.52 89.44 127.8 73 124.2 73C121.3 73 131.7 90.9 128.2 96C125.2 100.4 111.2 88.33 111.2 91C111.2 94.33 119.2 107 126.2 110C122.2 114 116.7 105.4 115.2 109C122.2 118 116.2 120 121.2 133C126.97 145.05 132.2 141 137.2 151C133.58 155.17 112.7 144.2 111.2 148C110.18 150.53 120.9 150.7 128.2 158C134.2 164 130 171.48 134.2 174C139.2 177 136.2 180 142.2 187C148.2 194 152.2 185 150.2 195C149.26 199.66 146.2 199.34 146.2 204C146.2 209.34 154.2 203 152.2 209C152.2 211.57 148.2 213 146.2 217C146.2 217.72 153.78 215.53 154.2 218C155.28 224.53 146.97 229.8 150.2 235C153.47 240.3 162.2 239 167.2 238C162.2 242 154.2 241.95 154.2 247C154.2 256.45 164.2 260 158.2 265C160.2 270 153.2 274 154.2 278C155.2 282 159.37 286.47 164.2 288C167.44 289.03 173.2 290 170.2 291C164.2 293 163.2 290 158.2 294C153.95 294 156.2 288 148.2 290C124.2 294 88.1998 310 75.1998 324C73.1998 327 87.1998 321 96.1998 320C88.1998 323 76.1998 327 91.1998 326C102.2 327 119.2 326 148.2 321C169.66 320.34 165.2 328 187.2 323C198.2 326 215.2 329 230.2 318C244.2 316 245.78 308.15 263.2 295C269.2 293 274.2 284 277.2 278C285 274.47 289.2 277 295.2 274Z" fill="#596475"/>
</svg>
