<svg width="371" height="510" viewBox="0 0 371 510" fill="none" xmlns="http://www.w3.org/2000/svg">
<path fill-rule="evenodd" clip-rule="evenodd" d="M301.66 270.36C301.66 267.36 290.66 264.36 281.66 264.36C280.32 261.69 277.99 259.36 274.66 257.36C269.32 254.69 262.32 254.69 253.66 257.36C245.66 258.36 237.66 244.36 245.66 231.36C252.66 228.36 255.66 222.36 256.66 217.36C248.66 213.36 245.66 212.36 234.66 213.36C169.66 217.36 149.66 241.36 124.66 263.36C116.66 270.36 134.66 268.36 142.66 268.36C100.66 268.36 64.66 309.36 70.66 305.36C76.66 301.36 86.66 311.36 105.66 294.36C107.66 293.36 98.66 299.36 90.66 309.36C111.66 306.36 111.66 303.36 129.66 305.36C127.66 312.36 133.26 312.58 138.66 313.36C142.99 313.98 147.86 312.92 153.66 313.36C166.19 314.76 166.66 312.36 171.66 312.36C177.66 312.36 177.01 312.96 180.66 312.36C189.66 310.36 187.66 309.36 190.66 305.36C187.66 313.36 191.66 316.36 196.66 326.36C203.66 320.36 202.66 312.36 202.66 307.36C202.66 320.36 201.66 316.36 204.66 324.36C210.66 319.36 210.66 320.36 212.66 312.36C209.66 322.36 211.66 329.36 215.66 340.36C220.66 340.36 222.5 335.7 225.66 337.36C225.66 342.36 225.66 340.36 231.66 350.36C236.66 345.36 233.66 353.36 238.66 342.36C237.66 352.36 242.66 346.36 248.66 360.36C253.66 350.36 251.66 346.36 247.66 337.36C253.66 350.36 255.66 349.36 260.66 356.36C262.66 337.36 259.66 333.36 253.66 320.36C256.66 301.36 247.66 300.36 248.66 286.86C256.66 276.36 263.66 288.86 272.66 280.36C279.66 279.36 276.66 276.36 281.66 273.36C289.66 268.36 300.66 274.36 301.66 270.36Z" fill="#596475"/>
</svg>
