<svg width="50" height="34" viewBox="0 0 50 34" fill="none" xmlns="http://www.w3.org/2000/svg">
<path d="M49.1382 33.3792H0.862504C0.386431 33.3792 0.000396729 32.9932 0.000396729 32.5171V1.48279C0.000396729 1.00672 0.386431 0.620682 0.862504 0.620682H49.1383C49.6144 0.620682 50.0004 1.00672 50.0004 1.48279V32.5171C50.0003 32.9933 49.6143 33.3792 49.1382 33.3792Z" fill="#FF4B55"/>
<path d="M34.4293 21.0813C33.9579 20.785 33.6751 21.2564 33.6751 21.2564L32.3011 21.418L32.988 20.8388C33.4864 20.8793 33.5538 20.7311 33.6884 20.5291C33.8231 20.327 34.3888 20.4213 34.3888 20.4213C34.308 19.8017 33.5267 20.1519 33.5267 20.1519C32.8936 20.0845 32.7859 20.5964 32.7859 20.5964L31.8026 21.3507L29.6386 20.7095C29.863 20.4623 30.0393 20.2186 30.065 20.0711C30.1081 19.8233 28.4667 19.4065 27.9637 18.8857C27.4609 18.3648 27.2813 17.5387 27.5148 17.3232C27.7482 17.1077 27.9459 17.7182 28.1972 18.2212C28.4486 18.7241 28.9157 19.1191 29.221 18.8677C29.5262 18.6164 28.8977 18.2392 28.6103 17.7004C28.323 17.1616 28.8258 16.9639 29.0593 17.0178C29.2928 17.0717 29.4365 18.1853 29.9933 18.7599C30.55 19.3346 31.0529 19.2268 31.1068 18.8676C31.1607 18.5085 30.188 18.0659 29.9903 17.7605C29.7927 17.4552 29.7418 16.8561 30.0651 16.8382C30.3883 16.8203 31.5737 18.5869 32.5795 19.2629C33.6751 19.9992 34.555 19.1371 34.4115 18.7779C34.2678 18.4186 33.6033 18.5624 32.831 18.3647C32.0587 18.1672 31.2685 17.1255 31.035 16.5508C30.8015 15.9761 30.9946 15.9761 31.1294 16.03C31.264 16.0839 31.7759 16.8382 32.7592 17.4174C33.7425 17.9966 34.4294 17.4444 34.5103 17.3097C34.5912 17.1751 34.9018 16.5704 33.8907 16.7126C32.7414 16.8742 32.0857 16.1918 31.6143 15.8281C31.1428 15.4644 30.9543 14.966 31.1698 14.7639C31.3853 14.5619 32.0947 15.4733 33.1722 15.7607C34.1621 16.0246 34.5641 15.5991 34.5371 15.2085C34.5101 14.8178 34.2811 14.9795 33.1631 14.8717C32.0452 14.764 31.2639 13.7133 31.2235 13.646C31.1831 13.5786 31.1965 13.2014 31.7623 13.5651C32.328 13.9288 33.3382 14.1443 33.9309 14.1174C34.5236 14.0904 34.6448 13.2957 34.362 13.161C34.0792 13.0263 34.0118 13.2284 33.3652 13.3631C32.7186 13.4977 31.5064 12.8378 31.21 12.5279C30.9136 12.218 31.237 12.0161 31.3851 12.0429C31.5333 12.0698 32.5031 12.6356 33.3652 12.6087C34.2273 12.5817 34.591 11.787 34.564 11.5445C34.5371 11.302 34.2946 11.1 33.9309 11.3425C33.5672 11.5849 33.0823 11.8677 32.2742 11.7331C31.466 11.5984 31.0888 11.0595 31.1966 10.8576C31.3044 10.6555 32.0856 11.0057 33.3249 10.8711C34.5641 10.7364 34.6179 9.64529 34.4967 9.42976C34.3755 9.21424 34.0792 9.28162 33.6616 9.67224C33.244 10.0629 32.4358 10.1437 31.8028 10.1437C31.1697 10.1437 31.1562 9.83396 31.2505 9.61844C31.3449 9.40291 32.0183 9.45682 32.9612 9.16043C33.9041 8.86414 34.4428 8.10975 34.5911 7.63836C34.7393 7.16697 34.3755 6.80321 34.2274 6.80321C34.0793 6.80321 34.1735 6.58768 33.527 7.51707C32.8804 8.44647 31.1833 8.81014 31.1833 8.81014C31.0621 8.58113 30.8735 8.50037 30.8735 8.50037C29.7286 8.72938 28.3475 9.71795 28.3475 9.71795C28.3475 9.71795 28.591 10.4988 28.2868 11.1074C27.8951 11.8908 26.5525 11.4014 26.9176 10.1642C27.2216 9.13396 28.3983 8.51111 29.3923 8.39949C30.3863 8.28797 30.437 7.91268 30.437 7.91268C30.437 7.91268 29.3932 8.25252 29.3746 7.78602C29.5901 7.82977 29.9078 7.84881 30.4471 7.80106C31.2484 7.73016 31.6947 7.16209 31.3397 7.04041C30.9847 6.91873 31.1369 7.28387 30.5283 7.56785C30.0942 7.77039 29.6386 7.67918 29.4106 7.60994C29.6213 7.14998 30.508 7.38524 30.508 7.38524C30.5181 6.58397 29.4549 6.87059 29.4549 6.87059C28.9881 5.86473 26.2581 7.03221 26.2581 7.03221L26.9047 7.55301C25.3242 8.43299 25.0009 10.1032 25.0009 10.1032C25.0009 10.1032 24.6776 8.43299 23.097 7.55291L23.7436 7.03211C23.7436 7.03211 21.0137 5.86463 20.5468 6.87049C20.5468 6.87049 19.4835 6.58397 19.4937 7.38514C19.4937 7.38514 20.3805 7.14989 20.5912 7.60985C20.3632 7.67918 19.9076 7.77029 19.4735 7.56776C18.865 7.28367 19.0172 6.91873 18.6621 7.04032C18.3071 7.162 18.7534 7.72996 19.5547 7.80096C20.094 7.84871 20.4117 7.82977 20.6272 7.78592C20.6086 8.25242 19.5648 7.91258 19.5648 7.91258C19.5648 7.91258 19.6156 8.28777 20.6095 8.39939C21.6034 8.51102 22.7802 9.13387 23.0842 10.1641C23.4492 11.4014 22.1067 11.8906 21.715 11.1073C21.4107 10.4988 21.6543 9.71785 21.6543 9.71785C21.6543 9.71785 20.2732 8.72928 19.1283 8.50027C19.1283 8.50027 18.9397 8.58113 18.8185 8.81004C18.8185 8.81004 17.1214 8.44637 16.4748 7.51697C15.8282 6.58758 15.9226 6.80311 15.7744 6.80311C15.6263 6.80311 15.2626 7.16678 15.4107 7.63826C15.5589 8.10975 16.0976 8.86404 17.0406 9.16033C17.9836 9.45662 18.657 9.40281 18.7513 9.61834C18.8456 9.83387 18.8321 10.1436 18.199 10.1436C17.5659 10.1436 16.7577 10.0628 16.3402 9.67215C15.9226 9.28152 15.6264 9.21414 15.5051 9.42967C15.3839 9.64519 15.4377 10.7362 16.6769 10.871C17.9162 11.0056 18.6974 10.6554 18.8052 10.8575C18.9129 11.0595 18.5357 11.5983 17.7276 11.733C16.9194 11.8676 16.4346 11.5848 16.0709 11.3424C15.7072 11.0999 15.4647 11.3019 15.4378 11.5444C15.4108 11.7869 15.7745 12.5816 16.6366 12.6086C17.4987 12.6355 18.4685 12.0698 18.6167 12.0428C18.7648 12.0159 19.0882 12.2179 18.7918 12.5277C18.4955 12.8375 17.2832 13.4975 16.6366 13.3629C15.99 13.2282 15.9227 13.0261 15.6398 13.1608C15.3569 13.2955 15.4782 14.0902 16.0709 14.1172C16.6636 14.1441 17.6738 13.9286 18.2395 13.5649C18.8053 13.2012 18.8187 13.5784 18.7783 13.6458C18.7379 13.7132 17.9566 14.7637 16.8387 14.8716C15.7207 14.9793 15.4917 14.8176 15.4647 15.2083C15.4378 15.5989 15.8398 16.0245 16.8297 15.7605C17.9072 15.4731 18.6168 14.5617 18.8322 14.7637C19.0477 14.9658 18.8592 15.4641 18.3877 15.8279C17.9162 16.1916 17.2606 16.874 16.1113 16.7124C15.1002 16.5703 15.4109 17.1749 15.4917 17.3095C15.5725 17.4442 16.2595 17.9964 17.2428 17.4172C18.2261 16.8381 18.7379 16.0838 18.8726 16.0298C19.0073 15.9759 19.2005 15.9759 18.967 16.5506C18.7335 17.1254 17.9432 18.1671 17.171 18.3645C16.3987 18.5622 15.7342 18.4184 15.5905 18.7777C15.4469 19.1369 16.3268 19.9989 17.4224 19.2626C18.4283 18.5866 19.6136 16.82 19.9369 16.838C20.2601 16.8558 20.2092 17.4549 20.0117 17.7602C19.814 18.0656 18.8413 18.5082 18.8952 18.8673C18.9491 19.2265 19.4518 19.3342 20.0087 18.7596C20.5654 18.1849 20.7091 17.0714 20.9427 17.0175C21.1761 16.9636 21.679 17.1613 21.3916 17.7001C21.1043 18.2388 20.4757 18.616 20.781 18.8674C21.0863 19.1188 21.5533 18.7238 21.8048 18.2209C22.0561 17.7179 22.2537 17.1074 22.4872 17.3229C22.7207 17.5384 22.5411 18.3645 22.0382 18.8854C21.5353 19.4062 19.8937 19.823 19.9369 20.0708C19.9626 20.2183 20.1388 20.4619 20.3633 20.7092L18.1993 21.3503L17.216 20.5961C17.216 20.5961 17.1083 20.0842 16.4752 20.1515C16.4752 20.1515 15.6939 19.8013 15.6131 20.421C15.6131 20.421 16.1788 20.3266 16.3135 20.5287C16.4481 20.7307 16.5155 20.8789 17.0139 20.8384L17.7007 21.4177L16.3267 21.2561C16.3267 21.2561 16.0438 20.7846 15.5725 21.081C15.5725 21.081 14.9798 20.8924 14.8316 21.4582C14.8316 21.4582 15.3435 21.3638 15.4782 21.4312C15.4782 21.4312 15.6803 21.8892 16.3268 21.6198L17.6873 21.6872L16.9195 22.0643C16.9195 22.0643 15.9497 21.7545 15.9901 22.5626C15.9901 22.5626 15.7072 22.8859 15.9632 23.2092C15.9632 23.2092 16.0171 22.859 16.2729 22.7109C16.2729 22.7109 16.7713 22.9129 17.0946 22.3203L18.0779 21.7276L19.0477 22.1991C19.0477 22.1991 19.0208 22.7244 19.7347 22.5088C19.7347 22.5088 19.9771 22.6705 20.0444 22.886C20.0444 22.886 20.3542 22.5493 19.8558 22.1586C19.8558 22.1586 19.7347 21.7006 19.142 21.8757L18.5897 21.5928L20.6332 20.9865C20.987 21.3234 21.3687 21.5997 21.5023 21.5534C21.766 21.4621 21.9689 21.1883 22.1513 20.8029C22.3339 20.4174 23.1554 19.0788 23.5611 19.089C23.9668 19.0992 24.1494 19.4236 24.0479 20.0018C23.9466 20.5798 23.1559 21.6873 22.644 21.9163C22.1322 22.1453 22.0513 22.253 21.5799 22.2126C21.1084 22.1721 20.9468 22.3742 21.0546 22.6436C21.1623 22.913 21.6927 23.0843 22.213 22.8861C22.7787 22.6706 22.9942 22.3743 23.2097 22.5494C23.4253 22.7245 22.9807 23.3576 22.3746 23.5461C21.7684 23.7347 21.3104 23.6135 21.4048 23.9907C21.4991 24.3678 22.1456 24.3948 22.5632 24.1523C22.9807 23.9098 23.4521 23.2364 23.5734 23.4519C23.6946 23.6674 23.6138 24.2197 23.2097 24.5161C22.8056 24.8124 22.346 24.638 22.2534 24.9067C22.1187 25.2973 22.5901 25.5533 22.9538 25.405C23.3175 25.2569 23.735 24.7989 23.9236 24.3948C24.1122 23.9907 24.4624 24.3409 24.3547 24.718C24.2469 25.0952 24.3367 25.4049 23.5643 25.9976L25.0011 28.2066L26.438 25.9975C25.6657 25.4048 25.7555 25.0951 25.6476 24.7179C25.5399 24.3408 25.8901 23.9906 26.0787 24.3947C26.2673 24.7988 26.6848 25.2568 27.0485 25.4049C27.4122 25.5531 27.8837 25.2972 27.7489 24.9066C27.6563 24.6379 27.1966 24.8123 26.7925 24.516C26.3884 24.2197 26.3076 23.6673 26.4289 23.4518C26.5501 23.2363 27.0216 23.9098 27.4391 24.1522C27.8567 24.3947 28.5033 24.3677 28.5975 23.9906C28.6918 23.6134 28.2339 23.7346 27.6277 23.546C27.0216 23.3575 26.577 22.7244 26.7925 22.5493C27.0081 22.3742 27.2236 22.6705 27.7893 22.886C28.3097 23.0842 28.84 22.9129 28.9477 22.6435C29.0554 22.3741 28.8938 22.172 28.4224 22.2125C27.9509 22.2529 27.8702 22.1451 27.3583 21.9162C26.8464 21.6873 26.0558 20.5798 25.9544 20.0017C25.8529 19.4236 26.0355 19.099 26.4412 19.0889C26.8468 19.0787 27.6683 20.4173 27.8509 20.8028C28.0335 21.1882 28.2363 21.4621 28.5 21.5534C28.6337 21.5997 29.0155 21.3234 29.3691 20.9865L31.4126 21.5928L30.8603 21.8757C30.2676 21.7006 30.1464 22.1586 30.1464 22.1586C29.6481 22.5493 29.9579 22.886 29.9579 22.886C30.0253 22.6705 30.2676 22.5088 30.2676 22.5088C30.9815 22.7244 30.9546 22.1991 30.9546 22.1991L31.9244 21.7276L32.9077 22.3203C33.2309 22.9129 33.7293 22.7109 33.7293 22.7109C33.9853 22.859 34.0391 23.2092 34.0391 23.2092C34.2951 22.886 34.0122 22.5626 34.0122 22.5626C34.0526 21.7545 33.0828 22.0644 33.0828 22.0644L32.3146 21.6875L33.6751 21.6201C34.3216 21.8895 34.5237 21.4315 34.5237 21.4315C34.6584 21.3641 35.1703 21.4585 35.1703 21.4585C35.022 20.8927 34.4293 21.0813 34.4293 21.0813Z" fill="#464655"/>
</svg>
