<svg width="24" height="24" viewBox="0 0 24 24" fill="none" xmlns="http://www.w3.org/2000/svg">
<path fill-rule="evenodd" clip-rule="evenodd" d="M1.42586 0.36346C1.15591 0.654343 1 1.09881 1 1.68058V22.3147C1 22.8964 1.15591 23.3409 1.43517 23.6202L1.50731 23.683L13.0683 12.1221V11.8638L1.498 0.300629L1.42586 0.36346Z" fill="url(#paint0_linear_16_224)"/>
<path fill-rule="evenodd" clip-rule="evenodd" d="M16.9149 15.9874L13.059 12.1315V11.8615L16.9149 8.00559L16.9987 8.05678L21.5597 10.6491C22.8651 11.3845 22.8651 12.5992 21.5597 13.3439L16.9987 15.9362L16.9149 15.9874Z" fill="url(#paint1_linear_16_224)"/>
<path fill-rule="evenodd" clip-rule="evenodd" d="M16.9984 15.9362L13.0587 11.9965L1.42564 23.6295C1.8515 24.0856 2.56591 24.1368 3.36409 23.6923L16.9984 15.9362Z" fill="url(#paint2_linear_16_224)"/>
<path fill-rule="evenodd" clip-rule="evenodd" d="M16.9984 8.05677L3.36409 0.312282C2.56591 -0.143824 1.84917 -0.0809931 1.42564 0.375113L13.0587 11.9965L16.9984 8.05677Z" fill="url(#paint3_linear_16_224)"/>
<defs>
<linearGradient id="paint0_linear_16_224" x1="12.0313" y1="1.45796" x2="-6.48738" y2="6.39233" gradientUnits="userSpaceOnUse">
<stop stop-color="#00A0FF"/>
<stop offset="0.00657" stop-color="#00A1FF"/>
<stop offset="0.2601" stop-color="#00BEFF"/>
<stop offset="0.5122" stop-color="#00D2FF"/>
<stop offset="0.7604" stop-color="#00DFFF"/>
<stop offset="1" stop-color="#00E3FF"/>
</linearGradient>
<linearGradient id="paint1_linear_16_224" x1="23.2621" y1="11.9965" x2="0.682906" y2="11.9965" gradientUnits="userSpaceOnUse">
<stop stop-color="#FFE000"/>
<stop offset="0.4087" stop-color="#FFBD00"/>
<stop offset="0.7754" stop-color="#FFA500"/>
<stop offset="1" stop-color="#FF9C00"/>
</linearGradient>
<linearGradient id="paint2_linear_16_224" x1="14.8561" y1="14.1403" x2="-0.0104655" y2="39.162" gradientUnits="userSpaceOnUse">
<stop stop-color="#FF3A44"/>
<stop offset="1" stop-color="#C31162"/>
</linearGradient>
<linearGradient id="paint3_linear_16_224" x1="-1.50368" y1="-6.49976" x2="5.1289" y2="4.67532" gradientUnits="userSpaceOnUse">
<stop stop-color="#32A071"/>
<stop offset="0.0685" stop-color="#2DA771"/>
<stop offset="0.4762" stop-color="#15CF74"/>
<stop offset="0.8009" stop-color="#06E775"/>
<stop offset="1" stop-color="#00F076"/>
</linearGradient>
</defs>
</svg>
