<svg width="371" height="510" viewBox="0 0 371 510" fill="none" xmlns="http://www.w3.org/2000/svg">
<path fill-rule="evenodd" clip-rule="evenodd" d="M290 254.1L272 251.1C270 245.1 266.67 241.75 262 241.1C248 240.1 245 248.1 240 251.1C219 248.1 221 250.1 205 251.1C175 246.1 169 255.1 155 258.1C119 263.1 122 267.1 107 274.1C73 292.1 66 293.1 32 303.1C38.67 303.75 46 303.1 54 301.1C39.33 305.1 33 307.42 35 308.1C66 303.1 64.02 312.33 87 308.1C98 305.1 97 299.1 100 296.1C102 303.1 101 303.1 102 309.1C118 306.1 123 307.1 132 307.1C135 311.1 128.34 315.7 132 317.1C136 315.75 141.33 314.42 148 313.1C144 317.75 142.33 321.42 143 324.1C158 326.1 155 328.1 167 325.1C156 329.1 156 329.1 151 335.1C167 338.1 165 336.1 175 337.1C171 341.1 172 345.1 174 348.1C180 345.1 183.53 343.6 186 345.1C183 348.54 181 352.1 184 354.1C194 352.1 196.4 348.82 199 352.1C196 360.1 199 363.1 200 374.1C205 374.1 210 372.1 215 370.1C216 378.1 212 378.1 212 386.1C218 389.1 225 383.1 229 385.1C222 389.1 222 391.1 221 394.1C228 397.1 227 396.1 235 394.1C229.67 398.1 228 401.75 230 405.1C235.33 401.75 238.33 401.75 239 405.1C237 411.1 239 412.1 240 420.1C250 415.1 250 422.1 261 425.1C266.97 428.37 267.4 435.64 272 439.1C281 445.84 292 448.1 291 448.1C290 448.1 282 437.1 286 438.1C289.33 442.1 293.67 446.42 299 451.1C299 443.1 298.33 437.42 297 434.1C306 448.1 309 446.1 325 457.1C328 444.1 319 439.1 310 429.1C329 451.1 329 449.1 340 453.1C316 423.1 320 427.1 311 400.1C297 374.1 287 339.1 272 325.1C254 313.1 253 308.1 234 299.1C230.67 294.42 226.67 291.1 222 289.1C234 287.1 243.33 283.42 250 278.1C252 273.1 257 273.1 261 269.1C267 267.75 270.67 264.75 272 260.1L290 254.1Z" fill="#596475"/>
</svg>
