<svg width="360" height="510" viewBox="0 0 360 510" fill="none" xmlns="http://www.w3.org/2000/svg">
<path fill-rule="evenodd" clip-rule="evenodd" d="M11 299.03C43 285.03 67 273.03 101 259.03C121 253.03 138 254.03 157 251.03C185 251.03 174 243.03 212 248.03C220 247.03 222.95 240.53 231 241.03C239.67 241.03 244.33 243.69 245 249.03L271 254.03L247 259.03C244.33 264.36 239 267.36 231 268.03C219 280.03 220 286.03 202 289.03C224 302.03 225 306.03 266 327.03C279 338.03 279 342.03 283 358.03C287 374.01 297.06 383.77 304 393.03C330 439.03 327 452.03 349 473.03C338 472.03 326 465.03 321 460.03C317 459.03 318 465.03 318 468.03C312 466.03 310 453.03 302 455.03C298.54 455.03 306 460.03 302 468.03C289 463.03 288 461.03 286 455.03C283 451.03 279 444.03 283 443.03C281 451.03 283 455.03 277 455.03C272 445.03 270 452.03 266 443.03C258 429.03 249 431.03 249 414.03C245 414.03 242 418.03 239 423.03C236 419.03 239 414.03 238 411.03C236 411.69 233.67 412.69 231 414.03C229 401.36 229 392.36 231 387.03C223 389.03 227 393.03 216 397.03C211 391.03 212 385.03 214 376.03C209 382.03 209 373.03 202 378.03C193 369.03 192 360.03 177 360.03C172 348.03 174 340.03 166 338.03C162.77 338.89 162 348.03 160 345.03C158 342.03 158 335.03 155 333.03C153 330.03 149 339.03 146 336.03C146 331.03 144 325.03 140 322.03C137 318.03 135 322.03 130 325.03C128 320.03 128 316.03 129 311.03C125 310.03 115 316.03 117 309.03C117 302.03 113 305.03 109 305.03C104 305.03 110 300.03 108 299.03C103 297.03 95 301.03 87 305.03C82 303.03 91 295.03 87 295.03C56 294.03 49 302.03 11 299.03Z" fill="#596475"/>
</svg>
