<svg width="371" height="510" viewBox="0 0 371 510" fill="none" xmlns="http://www.w3.org/2000/svg">
<path fill-rule="evenodd" clip-rule="evenodd" d="M300 275.74C299.48 273.39 292 272.74 280 270.74C273.38 267.64 272.32 261.74 266 261.74C253 261.74 258.17 267.9 245 270.74C237.3 272.41 230 272.74 225 270.74C220 268.74 218.68 267.04 215 264.74C195.8 252.84 204.83 264.99 195.83 244.74C185.29 232.74 185.23 220.19 189 202.74C189.97 198.24 191.27 194.59 193 191.74C199 181.91 205.67 161.14 204 146.74C202.6 134.58 193 132.74 177 129.74C156 125.74 144 124.74 119 127.74C110 135.74 98 132.74 86 148.74C95 147.74 93 145.74 100 151.74C108 147.74 115.48 150.44 116 150.74C123.16 154.87 112.46 154.47 117 156.74C123 156.74 119 160.74 117 165.74C122 165.24 125 164.74 123 169.74C127.4 172.96 131.36 166.5 132 170.74C132.86 176.5 120.3 180.14 123 187.74C141 190.74 143 192.74 145 194.74C141 195.74 148 196.74 119 205.74C122 215.74 133 211.74 134 221.74C134 228.74 125 225.74 122 238.74C134 240.74 131 244.74 145 244.74C140 244.74 127 248.74 119 256.74C128 258.74 125 262.74 133 263.74C140 266.74 139 267.1 137 270.74C130.5 282.6 132 285.74 117 293.74C102 301.74 90.7 309.52 82 315.74C77.37 319.06 74.52 323.97 71 327.74C83 325.74 83 324.74 86 325.74C88 329.74 87 322.74 86 336.74C92 331.74 102 324.74 108 320.74C113 320.74 121 317.74 125 320.74C130 320.74 125 313.74 125 311.78C125 309.82 128.48 317.58 130 315.74C135 309.74 134 306.74 133 301.74C137 304.74 134 312.64 139 313.74C158 319.74 160 318.74 181 312.74C182.2 312.67 183.95 311.82 185.3 311.78C186.5 313.2 186 314.78 189 315.74C190.57 313.39 193.93 312.68 195.83 312.64C196.35 312.64 195.59 311.71 195.83 311.78C205.83 314.78 213 315.74 228 312.74C241 304.74 252 307.74 263 295.74C277 289.74 277 285.74 280 279.74C284 276.74 289 279.74 300 275.74Z" fill="#596475"/>
</svg>
