<svg width="371" height="510" viewBox="0 0 371 510" fill="none" xmlns="http://www.w3.org/2000/svg">
<path fill-rule="evenodd" clip-rule="evenodd" d="M296 278.84C290 275.84 289 277.84 280 275.84C281 270.84 275.34 265.84 269 265.84C259.84 265.84 259.5 271.04 248 273.84C239 276.04 235.3 276.87 230 271.84C206 256.84 219 252.84 198 227.84C189 220.84 186 216.84 194 206.84C207 192.84 211 184.84 211 174.84C207 167.84 126 171.84 98 208.84C103.06 209.99 114.8 202.14 118.65 202.84C123 203.84 100 215.84 109 213.84C118 211.84 124 206.84 130 206.84C132.67 206.79 128 208.84 127 213.84C130.78 214.74 136.8 211.99 143 210.84C146.52 210.19 150.9 211.18 153 210.84C149 213.84 143 211.84 133 227.84C139 233.34 147 226.34 153 226.34C150 231.84 142 228.84 138 246.84C140 250.84 149 240.84 147 244.84C147 248.84 140 246.84 138 262.84C144 262.84 146 255.84 147 260.84C145 263.84 142 263.84 142 269.84C145 272.84 151 265.84 153 265.84C152 267.84 147 267.84 147 275.84C109 284.84 98 293.84 79 305.84C86 310.74 102 300.84 104 304.84C102.54 308.06 93 310.74 76 315.84C93 317.84 107 317.84 118.65 310.74C129 311.84 137.22 308.84 140 308.84C144 314.84 140 321.84 147 323.84C150 318.84 155 311.84 156 308.84C159 306.84 151 319.84 159 321.84C168 321.84 178 328.84 195 328.84C213 328.84 217 322.84 237 315.84C249 314.84 257 310.84 262 297.84C265 289.84 271 293.84 280 284.84C282 282.84 292 281.84 296 278.84Z" fill="#596475"/>
</svg>
