<svg width="24" height="24" viewBox="0 0 24 24" fill="none" xmlns="http://www.w3.org/2000/svg">
<g clip-path="url(#clip0_16_230)">
<path d="M7.84924 9.78673C7.47114 10.669 4.82445 13.4417 5.07651 16.2144C6.08478 27.8094 9.6137 19.9954 14.9071 22.8941C14.9071 22.8941 24.3595 17.6008 16.7976 9.03053C14.655 6.00574 16.5455 3.61112 15.1591 1.59459C13.7728 -0.421932 11.3782 -0.547965 9.6137 1.34253C7.84924 3.23302 10.3699 6.00574 7.84924 9.78673Z" fill="#333333"/>
<path d="M17.1758 15.5842C17.1758 15.5842 18.3101 13.3156 16.1675 11.6772C18.184 13.8198 16.9237 15.7102 16.9237 15.7102H16.5456C16.4196 11.2991 15.2853 13.6937 13.6469 5.87969C15.5373 3.73713 11.8824 1.84664 11.8824 5.37556H10.7481C10.8741 2.35077 8.22744 3.86316 9.73984 6.00572C9.61381 10.6689 6.84108 12.5594 6.84108 15.8363C5.95885 13.5677 7.59728 11.8032 7.59728 11.8032C7.59728 11.8032 5.32869 13.6937 6.71505 16.4664C8.10141 19.2392 10.6221 18.609 8.85761 19.8693C11.6303 21.7598 15.9154 20.4995 15.7894 16.4664C15.9154 15.4582 18.5621 15.8363 18.8142 16.0883C19.0663 16.3404 18.4361 15.5842 17.1758 15.5842ZM10.1179 5.75365C9.23571 5.50159 9.48777 4.36729 9.86587 4.36729C10.244 4.36729 10.8741 5.24952 10.1179 5.75365ZM12.5126 5.87969C11.8824 4.99746 12.3865 4.11523 13.0167 4.24126C13.6469 4.36729 13.6469 5.87969 12.5126 5.87969Z" fill="#EEEEEE"/>
<path d="M6.71503 16.8446L9.36172 20.6256C10.7481 21.5078 9.99188 25.0367 6.2109 23.2723C4.06834 22.6421 2.30388 22.7681 2.05182 21.6338C1.79975 20.4995 2.55595 20.3735 2.42991 19.8694C1.92578 17.0966 4.19437 18.483 4.82454 17.0966C5.4547 15.7103 5.4547 15.0801 6.71503 16.8446ZM20.8307 18.609C20.3266 17.8528 20.8307 16.4665 19.0662 16.5925C18.31 18.1049 16.1675 19.6173 16.0415 16.5925C14.7811 16.5925 15.6634 19.6173 15.1592 21.0037C14.0249 24.4065 17.3018 24.6586 18.6881 23.0202L21.965 20.7516C22.2171 20.3735 22.5952 19.9954 20.8307 18.609ZM9.23569 7.01402C8.85759 6.25782 10.622 5.24956 11.2522 5.24956C11.8824 5.24956 12.7646 5.75369 13.6468 6.00575C14.5291 6.25782 14.151 7.14005 13.8989 7.26608C13.6468 7.39212 12.2605 8.52641 11.2522 8.52641C10.2439 8.52641 9.99188 7.51815 9.23569 7.01402Z" fill="#FFCC22" stroke="#333333" stroke-width="0.1"/>
<path d="M9.23557 6.88799C10.2438 7.64419 11.3781 8.27435 13.6467 6.5099Z" fill="#FFCC22"/>
<path d="M9.23557 6.88799C10.2438 7.64419 11.3781 8.27435 13.6467 6.5099" stroke="#333333" stroke-width="0.1"/>
<path d="M10.6221 6.13176C10.37 6.13176 10.7481 5.87969 10.8741 6.00573ZM11.7564 6.13176C11.8824 6.00573 11.6303 5.87969 11.3783 6.00573Z" fill="#333333"/>
</g>
<defs>
<clipPath id="clip0_16_230">
<rect width="24" height="24" fill="white"/>
</clipPath>
</defs>
</svg>
