<svg width="26" height="18" viewBox="0 0 26 18" fill="none" xmlns="http://www.w3.org/2000/svg">
<path d="M25.5517 17.0344H0.448296C0.200738 17.0344 0 16.8337 0 16.5861V0.448296C0 0.200738 0.200738 0 0.448296 0H25.5517C25.7993 0 26 0.200738 26 0.448296V16.5861C25.9999 16.8338 25.7992 17.0344 25.5517 17.0344Z" fill="#FF4B55"/>
<path d="M17.903 10.6395C17.6579 10.4855 17.5108 10.7306 17.5108 10.7306L16.7964 10.8146L17.1536 10.5134C17.4127 10.5345 17.4477 10.4574 17.5178 10.3524C17.5878 10.2473 17.882 10.2963 17.882 10.2963C17.8399 9.97414 17.4337 10.1562 17.4337 10.1562C17.1045 10.1212 17.0484 10.3874 17.0484 10.3874L16.5371 10.7796L15.4119 10.4462C15.5286 10.3176 15.6202 10.1909 15.6336 10.1142C15.656 9.98536 14.8024 9.76863 14.5409 9.49781C14.2795 9.22695 14.1861 8.79739 14.3075 8.68532C14.4289 8.57324 14.5316 8.89073 14.6623 9.15225C14.7931 9.41377 15.0359 9.61918 15.1947 9.48847C15.3534 9.35776 15.0266 9.16164 14.8771 8.88143C14.7278 8.60127 14.9892 8.49849 15.1106 8.52652C15.2321 8.55455 15.3068 9.13361 15.5963 9.43241C15.8858 9.73126 16.1473 9.67519 16.1753 9.48842C16.2034 9.30165 15.6975 9.07151 15.5947 8.91271C15.492 8.75397 15.4655 8.44243 15.6336 8.43314C15.8017 8.42379 16.4181 9.34242 16.9411 9.69393C17.5108 10.0768 17.9684 9.62852 17.8938 9.44175C17.8191 9.25493 17.4735 9.32968 17.0719 9.2269C16.6703 9.12417 16.2594 8.58248 16.138 8.28369C16.0166 7.98484 16.117 7.98484 16.187 8.01287C16.2571 8.0409 16.5233 8.43314 17.0346 8.73432C17.5459 9.0355 17.9031 8.74833 17.9451 8.67831C17.9872 8.60828 18.1487 8.29384 17.6229 8.36778C17.0253 8.45182 16.6843 8.09697 16.4392 7.90786C16.1941 7.71875 16.096 7.45956 16.2081 7.35449C16.3201 7.24943 16.689 7.72337 17.2493 7.87282C17.7641 8.01003 17.9731 7.78877 17.9591 7.58565C17.945 7.38252 17.826 7.46657 17.2446 7.41056C16.6633 7.35454 16.257 6.80819 16.236 6.77315C16.215 6.73811 16.222 6.542 16.5162 6.7311C16.8103 6.92021 17.3357 7.03229 17.6439 7.01827C17.952 7.00426 18.0151 6.591 17.868 6.52097C17.7209 6.45094 17.6859 6.55601 17.3497 6.62604C17.0135 6.69607 16.3831 6.35289 16.229 6.19176C16.0749 6.03063 16.243 5.92561 16.32 5.93958C16.3971 5.95354 16.9014 6.24777 17.3497 6.23375C17.798 6.21974 17.9871 5.80648 17.9731 5.68039C17.9591 5.5543 17.833 5.44924 17.6439 5.57533C17.4547 5.70141 17.2026 5.84848 16.7824 5.77845C16.3621 5.70842 16.166 5.42821 16.222 5.3232C16.278 5.21813 16.6843 5.40023 17.3287 5.3302C17.9731 5.26018 18.0011 4.6928 17.9381 4.58073C17.8751 4.46865 17.7209 4.50369 17.5038 4.70682C17.2867 4.90994 16.8664 4.95199 16.5372 4.95199C16.208 4.95199 16.201 4.79091 16.2501 4.67883C16.2991 4.56676 16.6493 4.59479 17.1396 4.44067C17.6299 4.2866 17.9101 3.89432 17.9871 3.6492C18.0642 3.40407 17.8751 3.21492 17.798 3.21492C17.721 3.21492 17.77 3.10284 17.4338 3.58613C17.0976 4.06941 16.2151 4.25852 16.2151 4.25852C16.1521 4.13944 16.054 4.09744 16.054 4.09744C15.4586 4.21652 14.7405 4.73058 14.7405 4.73058C14.7405 4.73058 14.8671 5.13663 14.7089 5.4531C14.5052 5.86046 13.8071 5.606 13.997 4.96265C14.155 4.42691 14.7669 4.10303 15.2838 4.04498C15.8007 3.98699 15.827 3.79184 15.827 3.79184C15.827 3.79184 15.2843 3.96856 15.2746 3.72598C15.3866 3.74873 15.5518 3.75863 15.8323 3.7338C16.249 3.69693 16.481 3.40154 16.2964 3.33826C16.1118 3.27499 16.191 3.46486 15.8745 3.61253C15.6488 3.71785 15.4119 3.67042 15.2933 3.63442C15.4028 3.39524 15.8639 3.51757 15.8639 3.51757C15.8692 3.10091 15.3164 3.24995 15.3164 3.24995C15.0736 2.72691 13.654 3.334 13.654 3.334L13.9902 3.60481C13.1684 4.0624 13.0002 4.93091 13.0002 4.93091C13.0002 4.93091 12.8321 4.0624 12.0102 3.60476L12.3465 3.33395C12.3465 3.33395 10.9269 2.72686 10.6841 3.2499C10.6841 3.2499 10.1312 3.10091 10.1365 3.51752C10.1365 3.51752 10.5976 3.39519 10.7072 3.63437C10.5886 3.67042 10.3517 3.7178 10.126 3.61248C9.8096 3.46476 9.88871 3.27499 9.70407 3.33821C9.51948 3.40149 9.75155 3.69683 10.1682 3.73375C10.4487 3.75858 10.6139 3.74873 10.7259 3.72593C10.7162 3.96851 10.1735 3.79179 10.1735 3.79179C10.1735 3.79179 10.1999 3.98689 10.7167 4.04493C11.2336 4.10298 11.8455 4.42686 12.0035 4.9626C12.1934 5.606 11.4953 5.86036 11.2916 5.45304C11.1334 5.13663 11.26 4.73053 11.26 4.73053C11.26 4.73053 10.5419 4.21647 9.9465 4.09739C9.9465 4.09739 9.84845 4.13944 9.78543 4.25847C9.78543 4.25847 8.9029 4.06936 8.56668 3.58607C8.23046 3.10279 8.27951 3.21486 8.20248 3.21486C8.12544 3.21486 7.93633 3.40397 8.01337 3.64915C8.0904 3.89432 8.37056 4.28655 8.8609 4.44062C9.35125 4.59469 9.70143 4.56671 9.75044 4.67878C9.79949 4.79086 9.79248 4.95194 9.46327 4.95194C9.13406 4.95194 8.71379 4.90989 8.4967 4.70676C8.27956 4.50364 8.12549 4.4686 8.06242 4.58067C7.9994 4.69275 8.02738 5.26008 8.6718 5.33015C9.31621 5.40018 9.72246 5.21808 9.77847 5.32315C9.83448 5.42821 9.63836 5.70837 9.21815 5.7784C8.79788 5.84843 8.54576 5.70136 8.35665 5.57527C8.16754 5.44918 8.04145 5.55425 8.02743 5.68034C8.01342 5.80643 8.20253 6.21969 8.65082 6.2337C9.09912 6.24772 9.60343 5.95354 9.68046 5.93953C9.7575 5.92551 9.92563 6.03058 9.77151 6.19166C9.61744 6.35273 8.98704 6.69596 8.65082 6.62594C8.3146 6.55591 8.27961 6.45084 8.1325 6.52087C7.98539 6.5909 8.04846 7.00415 8.35665 7.01817C8.66484 7.03219 9.19017 6.92011 9.48434 6.731C9.77852 6.54189 9.78553 6.73801 9.7645 6.77305C9.74348 6.80809 9.33723 7.35439 8.75589 7.41045C8.17455 7.46647 8.05546 7.38242 8.04145 7.58555C8.02743 7.78867 8.2365 8.00998 8.75122 7.87272C9.31154 7.72327 9.68051 7.24933 9.79254 7.35439C9.90461 7.45946 9.80655 7.71859 9.56138 7.90775C9.31621 8.09686 8.97531 8.45172 8.37767 8.36768C7.85188 8.29379 8.01347 8.60818 8.05546 8.67821C8.09746 8.74823 8.45471 9.0354 8.96602 8.73422C9.47734 8.43304 9.74348 8.0408 9.81356 8.01277C9.88359 7.98474 9.98403 7.98474 9.86261 8.28359C9.7412 8.58243 9.33027 9.12412 8.9287 9.22679C8.52712 9.32958 8.18155 9.25483 8.10686 9.44165C8.03216 9.62842 8.48974 10.0767 9.05946 9.69378C9.5825 9.34227 10.1988 8.42364 10.367 8.43298C10.5351 8.44228 10.5085 8.75382 10.4059 8.91256C10.3031 9.07135 9.79726 9.30149 9.82529 9.48827C9.85332 9.67504 10.1147 9.73105 10.4043 9.43226C10.6938 9.13341 10.7685 8.55435 10.89 8.52637C11.0113 8.49834 11.2729 8.60112 11.1234 8.88128C10.974 9.16144 10.6471 9.35756 10.8059 9.48832C10.9647 9.61903 11.2075 9.41362 11.3383 9.1521C11.469 8.89057 11.5717 8.57309 11.6931 8.68516C11.8145 8.79724 11.7212 9.2268 11.4596 9.49766C11.1982 9.76848 10.3445 9.98521 10.367 10.114C10.3803 10.1908 10.4719 10.3174 10.5887 10.4461L9.46342 10.7794L8.95211 10.3872C8.95211 10.3872 8.8961 10.1211 8.56688 10.156C8.56688 10.156 8.16063 9.97394 8.11859 10.2961C8.11859 10.2961 8.41276 10.2471 8.48279 10.3522C8.55282 10.4572 8.58785 10.5343 8.84699 10.5132L9.20413 10.8145L8.48969 10.7304C8.48969 10.7304 8.34258 10.4853 8.09746 10.6394C8.09746 10.6394 7.78927 10.5413 7.71223 10.8355C7.71223 10.8355 7.97838 10.7864 8.04846 10.8215C8.04846 10.8215 8.15352 11.0596 8.48974 10.9195L9.19718 10.9546L8.79794 11.1507C8.79794 11.1507 8.29363 10.9896 8.31465 11.4098C8.31465 11.4098 8.16754 11.5779 8.30064 11.746C8.30064 11.746 8.32867 11.5639 8.46171 11.4869C8.46171 11.4869 8.72085 11.592 8.88899 11.2838L9.4003 10.9756L9.90461 11.2208C9.90461 11.2208 9.89059 11.4939 10.2618 11.3818C10.2618 11.3818 10.3879 11.4659 10.4229 11.578C10.4229 11.578 10.584 11.4029 10.3248 11.1997C10.3248 11.1997 10.2618 10.9616 9.95361 11.0526L9.66645 10.9055L10.729 10.5902C10.913 10.7654 11.1115 10.9091 11.181 10.885C11.3181 10.8375 11.4236 10.6952 11.5185 10.4947C11.6134 10.2943 12.0406 9.59821 12.2516 9.60354C12.4625 9.60882 12.5575 9.77752 12.5047 10.0782C12.452 10.3788 12.0409 10.9546 11.7747 11.0737C11.5085 11.1928 11.4665 11.2488 11.2213 11.2278C10.9761 11.2068 10.8921 11.3118 10.9482 11.4519C11.0042 11.592 11.28 11.6811 11.5505 11.578C11.8447 11.4659 11.9568 11.3119 12.0689 11.4029C12.1809 11.494 11.9498 11.8232 11.6346 11.9212C11.3194 12.0193 11.0812 11.9563 11.1303 12.1524C11.1793 12.3485 11.5155 12.3625 11.7326 12.2364C11.9498 12.1104 12.1949 11.7602 12.258 11.8722C12.321 11.9843 12.279 12.2715 12.0689 12.4256C11.8587 12.5797 11.6197 12.489 11.5716 12.6287C11.5015 12.8319 11.7466 12.9649 11.9358 12.8879C12.1249 12.8108 12.342 12.5727 12.4401 12.3625C12.5381 12.1524 12.7202 12.3345 12.6642 12.5306C12.6082 12.7267 12.6549 12.8878 12.2532 13.196L13.0004 14.3447L13.7475 13.196C13.3459 12.8878 13.3927 12.7267 13.3366 12.5306C13.2805 12.3345 13.4626 12.1523 13.5607 12.3625C13.6588 12.5726 13.8759 12.8108 14.065 12.8878C14.2541 12.9648 14.4993 12.8318 14.4292 12.6287C14.3811 12.489 14.142 12.5796 13.9319 12.4256C13.7218 12.2715 13.6797 11.9843 13.7428 11.8722C13.8058 11.7601 14.051 12.1104 14.2681 12.2364C14.4853 12.3625 14.8215 12.3485 14.8705 12.1523C14.9195 11.9562 14.6814 12.0193 14.3662 11.9212C14.051 11.8231 13.8198 11.4939 13.9319 11.4029C14.044 11.3118 14.1561 11.4659 14.4502 11.578C14.7208 11.681 14.9966 11.592 15.0526 11.4519C15.1086 11.3118 15.0246 11.2067 14.7794 11.2277C14.5343 11.2487 14.4923 11.1927 14.2261 11.0737C13.9599 10.9546 13.5488 10.3788 13.4961 10.0781C13.4433 9.77752 13.5383 9.60872 13.7492 9.60349C13.9601 9.59816 14.3873 10.2943 14.4823 10.4947C14.5772 10.6951 14.6827 10.8375 14.8198 10.885C14.8893 10.9091 15.0878 10.7654 15.2717 10.5902L16.3343 10.9055L16.0471 11.0526C15.739 10.9616 15.6759 11.1997 15.6759 11.1997C15.4168 11.4029 15.5779 11.578 15.5779 11.578C15.6129 11.4659 15.739 11.3818 15.739 11.3818C16.1102 11.4939 16.0962 11.2208 16.0962 11.2208L16.6005 10.9756L17.1118 11.2838C17.2799 11.592 17.539 11.4869 17.539 11.4869C17.6721 11.5639 17.7001 11.746 17.7001 11.746C17.8332 11.578 17.6861 11.4098 17.6861 11.4098C17.7071 10.9896 17.2028 11.1507 17.2028 11.1507L16.8034 10.9547L17.5108 10.9197C17.847 11.0598 17.9521 10.8216 17.9521 10.8216C18.0221 10.7866 18.2883 10.8356 18.2883 10.8356C18.2112 10.5415 17.903 10.6395 17.903 10.6395Z" fill="black"/>
<rect x="0.999786" y="1.51725" width="24" height="14" fill="white" fill-opacity="0.1"/>
<rect x="1.49979" y="2.01725" width="23" height="13" stroke="white" stroke-opacity="0.1"/>
</svg>
