<svg width="26" height="18" viewBox="0 0 26 18" fill="none" xmlns="http://www.w3.org/2000/svg">
<path d="M25.5517 17.0345H0.448296C0.200738 17.0345 0 16.8338 0 16.5862V0.448296C0 0.200738 0.200738 0 0.448296 0H25.5517C25.7993 0 26 0.200738 26 0.448296V16.5862C25.9999 16.8338 25.7992 17.0345 25.5517 17.0345Z" fill="#F5F5F5"/>
<path d="M25.5517 17.0345H0.448296C0.200738 17.0345 0 16.8338 0 16.5862V0.448296C0 0.200738 0.200738 0 0.448296 0H25.5517C25.7993 0 26 0.200738 26 0.448296V16.5862C25.9999 16.8338 25.7992 17.0345 25.5517 17.0345Z" fill="#F5F5F5"/>
<path d="M26 1.31041H0V0.448296C0 0.200738 0.200738 0 0.448296 0H25.5517C25.7993 0 26 0.200738 26 0.448296L26 1.31041Z" fill="#FF4B55"/>
<path d="M26 5.24134H0V6.5517H26V5.24134Z" fill="#FF4B55"/>
<path d="M26 2.62054H0V3.93089H26V2.62054Z" fill="#FF4B55"/>
<path d="M26 9.17241H0.448296C0.200738 9.17241 0 8.97167 0 8.72411V7.862H26V9.17241Z" fill="#FF4B55"/>
<path d="M26 13.1038H0V14.4141H26V13.1038Z" fill="#FF4B55"/>
<path d="M25.5517 17.0345H0.448296C0.200738 17.0345 0 16.8337 0 16.5862V15.7241H26V16.5862C26 16.8338 25.7992 17.0345 25.5517 17.0345Z" fill="#FF4B55"/>
<path d="M26 10.483H0V11.7933H26V10.483Z" fill="#FF4B55"/>
<path d="M11.6551 6.10352e-05H0.448296C0.200738 6.10352e-05 0 0.200748 0 0.448306V8.72411C0 8.97167 0.200738 9.17241 0.448296 9.17241H11.6552C11.9027 9.17241 12.1035 8.97167 12.1035 8.72411V0.448306C12.1034 0.200748 11.9027 6.10352e-05 11.6551 6.10352e-05Z" fill="#41479B"/>
<path d="M1.25938 1.02896L1.35861 1.32654L1.67228 1.32893C1.71291 1.32928 1.72972 1.38108 1.69707 1.4052L1.44473 1.59157L1.53939 1.89062C1.55168 1.92931 1.50755 1.9614 1.47449 1.93774L1.21932 1.75539L0.964142 1.93779C0.931083 1.9614 0.887056 1.92936 0.899243 1.89067L0.993899 1.59162L0.741568 1.40525C0.708915 1.38108 0.725724 1.32933 0.766349 1.32898L1.08002 1.32659L1.17925 1.02901C1.19205 0.990419 1.24648 0.990419 1.25938 1.02896Z" fill="#F5F5F5"/>
<path d="M1.25899 2.58557L1.35821 2.88315L1.67189 2.88554C1.71251 2.88589 1.72932 2.93769 1.69667 2.96181L1.44434 3.14818L1.53899 3.44723C1.55128 3.48592 1.50715 3.51802 1.4741 3.49435L1.21892 3.312L0.963745 3.4944C0.930686 3.51802 0.886659 3.48597 0.898846 3.44728L0.993503 3.14823L0.741171 2.96186C0.708519 2.93769 0.725327 2.88594 0.765952 2.88559L1.07963 2.8832L1.17885 2.58562C1.19165 2.54708 1.24609 2.54708 1.25899 2.58557Z" fill="#F5F5F5"/>
<path d="M1.25899 4.14222L1.35821 4.4398L1.67189 4.44218C1.71251 4.44254 1.72932 4.49434 1.69667 4.51846L1.44434 4.70482L1.53899 5.00387C1.55128 5.04257 1.50715 5.07466 1.4741 5.051L1.21892 4.86864L0.963745 5.05105C0.930686 5.07466 0.886659 5.04262 0.898846 5.00393L0.993503 4.70487L0.741171 4.51851C0.708519 4.49434 0.725327 4.44259 0.765952 4.44224L1.07963 4.43985L1.17885 4.14227C1.19165 4.10373 1.24609 4.10373 1.25899 4.14222Z" fill="#F5F5F5"/>
<path d="M1.25899 5.69894L1.35821 5.99652L1.67189 5.99891C1.71251 5.99926 1.72932 6.05106 1.69667 6.07518L1.44434 6.26155L1.53899 6.5606C1.55128 6.59929 1.50715 6.63139 1.4741 6.60772L1.21892 6.42537L0.963745 6.60778C0.930686 6.63139 0.886659 6.59935 0.898846 6.56065L0.993503 6.2616L0.741171 6.07523C0.708519 6.05106 0.725327 5.99932 0.765952 5.99896L1.07963 5.99657L1.17885 5.699C1.19165 5.6604 1.24609 5.6604 1.25899 5.69894Z" fill="#F5F5F5"/>
<path d="M1.25899 7.25556L1.35821 7.55314L1.67189 7.55553C1.71251 7.55588 1.72932 7.60768 1.69667 7.6318L1.44434 7.81817L1.53899 8.11722C1.55128 8.15591 1.50715 8.188 1.4741 8.16434L1.21892 7.98199L0.963745 8.16439C0.930686 8.18801 0.886659 8.15596 0.898846 8.11727L0.993503 7.81822L0.741171 7.63185C0.708519 7.60768 0.725327 7.55593 0.765952 7.55558L1.07963 7.55319L1.17885 7.25561C1.19165 7.21697 1.24609 7.21697 1.25899 7.25556Z" fill="#F5F5F5"/>
<path d="M2.46718 1.79212L2.5664 2.0897L2.88008 2.09209C2.9207 2.09244 2.93751 2.14424 2.90486 2.16836L2.65253 2.35473L2.74718 2.65378C2.75947 2.69247 2.71534 2.72457 2.68229 2.7009L2.42711 2.5185L2.17194 2.7009C2.13888 2.72451 2.09485 2.69247 2.10704 2.65378L2.20169 2.35473L1.94936 2.16836C1.91671 2.14419 1.93352 2.09244 1.97414 2.09209L2.28782 2.0897L2.38704 1.79212C2.39979 1.75363 2.45433 1.75363 2.46718 1.79212Z" fill="#F5F5F5"/>
<path d="M2.46718 3.34881L2.5664 3.64638L2.88008 3.64877C2.9207 3.64913 2.93751 3.70092 2.90486 3.72504L2.65253 3.91141L2.74718 4.21046C2.75947 4.24916 2.71534 4.28125 2.68229 4.25759L2.42711 4.07518L2.17194 4.25759C2.13888 4.2812 2.09485 4.24921 2.10704 4.21046L2.20169 3.91141L1.94936 3.72504C1.91671 3.70087 1.93352 3.64913 1.97414 3.64877L2.28782 3.64638L2.38704 3.34881C2.39979 3.31026 2.45433 3.31026 2.46718 3.34881Z" fill="#F5F5F5"/>
<path d="M2.46718 4.90546L2.5664 5.20303L2.88008 5.20542C2.9207 5.20578 2.93751 5.25757 2.90486 5.28169L2.65253 5.46806L2.74718 5.76711C2.75947 5.80581 2.71534 5.8379 2.68229 5.81424L2.42711 5.63183L2.17194 5.81424C2.13888 5.83785 2.09485 5.80581 2.10704 5.76711L2.20169 5.46806L1.94936 5.28169C1.91671 5.25752 1.93352 5.20578 1.97414 5.20542L2.28782 5.20303L2.38704 4.90546C2.39979 4.86691 2.45433 4.86691 2.46718 4.90546Z" fill="#F5F5F5"/>
<path d="M2.46718 6.4621L2.5664 6.75967L2.88008 6.76206C2.9207 6.76242 2.93751 6.81421 2.90486 6.83833L2.65253 7.0247L2.74718 7.32375C2.75947 7.36245 2.71534 7.39454 2.68229 7.37088L2.42711 7.18847L2.17194 7.37088C2.13888 7.39449 2.09485 7.36245 2.10704 7.32375L2.20169 7.0247L1.94936 6.83833C1.91671 6.81416 1.93352 6.76242 1.97414 6.76206L2.28782 6.75967L2.38704 6.4621C2.39979 6.4236 2.45433 6.4236 2.46718 6.4621Z" fill="#F5F5F5"/>
<path d="M3.67546 1.02894L3.77469 1.32652L4.08836 1.3289C4.12899 1.32926 4.14579 1.38105 4.11314 1.40517L3.86081 1.59154L3.95547 1.89059C3.96776 1.92929 3.92363 1.96138 3.89057 1.93772L3.63539 1.75531L3.38022 1.93772C3.34716 1.96133 3.30313 1.92929 3.31532 1.89059L3.40998 1.59154L3.15764 1.40517C3.12499 1.381 3.1418 1.32926 3.18243 1.3289L3.4961 1.32652L3.59533 1.02894C3.60812 0.990395 3.66261 0.990395 3.67546 1.02894Z" fill="#F5F5F5"/>
<path d="M3.67546 2.58558L3.77469 2.88316L4.08836 2.88554C4.12899 2.8859 4.14579 2.93769 4.11314 2.96182L3.86081 3.14818L3.95547 3.44723C3.96776 3.48593 3.92363 3.51802 3.89057 3.49436L3.63539 3.31195L3.38022 3.49436C3.34716 3.51797 3.30313 3.48593 3.31532 3.44723L3.40998 3.14818L3.15764 2.96182C3.12499 2.93764 3.1418 2.8859 3.18243 2.88554L3.4961 2.88316L3.59533 2.58558C3.60812 2.54709 3.66261 2.54709 3.67546 2.58558Z" fill="#F5F5F5"/>
<path d="M3.67546 4.14223L3.77469 4.4398L4.08836 4.44219C4.12899 4.44255 4.14579 4.49434 4.11314 4.51847L3.86081 4.70483L3.95547 5.00388C3.96776 5.04258 3.92363 5.07467 3.89057 5.05101L3.63539 4.8686L3.38022 5.05101C3.34716 5.07462 3.30313 5.04258 3.31532 5.00388L3.40998 4.70483L3.15764 4.51847C3.12499 4.49429 3.1418 4.44255 3.18243 4.44219L3.4961 4.4398L3.59533 4.14223C3.60812 4.10373 3.66261 4.10373 3.67546 4.14223Z" fill="#F5F5F5"/>
<path d="M3.67546 5.69891L3.77469 5.99649L4.08836 5.99888C4.12899 5.99923 4.14579 6.05103 4.11314 6.07515L3.86081 6.26152L3.95547 6.56057C3.96776 6.59926 3.92363 6.63136 3.89057 6.60769L3.63539 6.42529L3.38022 6.60769C3.34716 6.6313 3.30313 6.59926 3.31532 6.56057L3.40998 6.26152L3.15764 6.07515C3.12499 6.05098 3.1418 5.99923 3.18243 5.99888L3.4961 5.99649L3.59533 5.69891C3.60812 5.66037 3.66261 5.66037 3.67546 5.69891Z" fill="#F5F5F5"/>
<path d="M3.67546 7.25557L3.77469 7.55315L4.08836 7.55553C4.12899 7.55589 4.14579 7.60768 4.11314 7.63181L3.86081 7.81817L3.95547 8.11722C3.96776 8.15592 3.92363 8.18801 3.89057 8.16435L3.63539 7.98194L3.38022 8.16435C3.34716 8.18796 3.30313 8.15592 3.31532 8.11722L3.40998 7.81817L3.15764 7.63181C3.12499 7.60763 3.1418 7.55589 3.18243 7.55553L3.4961 7.55315L3.59533 7.25557C3.60812 7.21698 3.66261 7.21698 3.67546 7.25557Z" fill="#F5F5F5"/>
<path d="M4.88379 1.79212L4.98301 2.0897L5.29669 2.09209C5.33731 2.09244 5.35412 2.14424 5.32147 2.16836L5.06914 2.35473L5.1638 2.65378C5.17608 2.69247 5.13196 2.72457 5.0989 2.7009L4.84372 2.5185L4.58855 2.7009C4.55549 2.72451 4.51146 2.69247 4.52365 2.65378L4.6183 2.35473L4.36597 2.16836C4.33332 2.14419 4.35013 2.09244 4.39075 2.09209L4.70443 2.0897L4.80366 1.79212C4.8164 1.75363 4.87094 1.75363 4.88379 1.79212Z" fill="#F5F5F5"/>
<path d="M4.88379 3.34881L4.98301 3.64638L5.29669 3.64877C5.33731 3.64913 5.35412 3.70092 5.32147 3.72504L5.06914 3.91141L5.1638 4.21046C5.17608 4.24916 5.13196 4.28125 5.0989 4.25759L4.84372 4.07518L4.58855 4.25759C4.55549 4.2812 4.51146 4.24921 4.52365 4.21046L4.6183 3.91141L4.36597 3.72504C4.33332 3.70087 4.35013 3.64913 4.39075 3.64877L4.70443 3.64638L4.80366 3.34881C4.8164 3.31026 4.87094 3.31026 4.88379 3.34881Z" fill="#F5F5F5"/>
<path d="M4.88379 4.90546L4.98301 5.20303L5.29669 5.20542C5.33731 5.20578 5.35412 5.25757 5.32147 5.28169L5.06914 5.46806L5.1638 5.76711C5.17608 5.80581 5.13196 5.8379 5.0989 5.81424L4.84372 5.63183L4.58855 5.81424C4.55549 5.83785 4.51146 5.80581 4.52365 5.76711L4.6183 5.46806L4.36597 5.28169C4.33332 5.25752 4.35013 5.20578 4.39075 5.20542L4.70443 5.20303L4.80366 4.90546C4.8164 4.86691 4.87094 4.86691 4.88379 4.90546Z" fill="#F5F5F5"/>
<path d="M4.88379 6.4621L4.98301 6.75967L5.29669 6.76206C5.33731 6.76242 5.35412 6.81421 5.32147 6.83833L5.06914 7.0247L5.1638 7.32375C5.17608 7.36245 5.13196 7.39454 5.0989 7.37088L4.84372 7.18847L4.58855 7.37088C4.55549 7.39449 4.51146 7.36245 4.52365 7.32375L4.6183 7.0247L4.36597 6.83833C4.33332 6.81416 4.35013 6.76242 4.39075 6.76206L4.70443 6.75967L4.80366 6.4621C4.8164 6.4236 4.87094 6.4236 4.88379 6.4621Z" fill="#F5F5F5"/>
<path d="M6.09198 1.02894L6.19121 1.32652L6.50489 1.3289C6.54551 1.32926 6.56232 1.38105 6.52967 1.40517L6.27733 1.59154L6.37199 1.89059C6.38428 1.92929 6.34015 1.96138 6.30709 1.93772L6.05187 1.75531L5.79669 1.93772C5.76363 1.96133 5.71961 1.92929 5.73179 1.89059L5.82645 1.59154L5.57412 1.40517C5.54147 1.381 5.55827 1.32926 5.5989 1.3289L5.91257 1.32652L6.0118 1.02894C6.02465 0.990395 6.07914 0.990395 6.09198 1.02894Z" fill="#F5F5F5"/>
<path d="M6.09198 2.58558L6.19121 2.88316L6.50489 2.88554C6.54551 2.8859 6.56232 2.93769 6.52967 2.96182L6.27733 3.14818L6.37199 3.44723C6.38428 3.48593 6.34015 3.51802 6.30709 3.49436L6.05187 3.31195L5.79669 3.49436C5.76363 3.51797 5.71961 3.48593 5.73179 3.44723L5.82645 3.14818L5.57412 2.96182C5.54147 2.93764 5.55827 2.8859 5.5989 2.88554L5.91257 2.88316L6.0118 2.58558C6.02465 2.54709 6.07914 2.54709 6.09198 2.58558Z" fill="#F5F5F5"/>
<path d="M6.09198 4.14223L6.19121 4.4398L6.50489 4.44219C6.54551 4.44255 6.56232 4.49434 6.52967 4.51847L6.27733 4.70483L6.37199 5.00388C6.38428 5.04258 6.34015 5.07467 6.30709 5.05101L6.05187 4.8686L5.79669 5.05101C5.76363 5.07462 5.71961 5.04258 5.73179 5.00388L5.82645 4.70483L5.57412 4.51847C5.54147 4.49429 5.55827 4.44255 5.5989 4.44219L5.91257 4.4398L6.0118 4.14223C6.02465 4.10373 6.07914 4.10373 6.09198 4.14223Z" fill="#F5F5F5"/>
<path d="M6.09198 5.69891L6.19121 5.99649L6.50489 5.99888C6.54551 5.99923 6.56232 6.05103 6.52967 6.07515L6.27733 6.26152L6.37199 6.56057C6.38428 6.59926 6.34015 6.63136 6.30709 6.60769L6.05187 6.42529L5.79669 6.60769C5.76363 6.6313 5.71961 6.59926 5.73179 6.56057L5.82645 6.26152L5.57412 6.07515C5.54147 6.05098 5.55827 5.99923 5.5989 5.99888L5.91257 5.99649L6.0118 5.69891C6.02465 5.66037 6.07914 5.66037 6.09198 5.69891Z" fill="#F5F5F5"/>
<path d="M6.09198 7.25557L6.19121 7.55315L6.50489 7.55553C6.54551 7.55589 6.56232 7.60768 6.52967 7.63181L6.27733 7.81817L6.37199 8.11722C6.38428 8.15592 6.34015 8.18801 6.30709 8.16435L6.05187 7.98194L5.79669 8.16435C5.76363 8.18796 5.71961 8.15592 5.73179 8.11722L5.82645 7.81817L5.57412 7.63181C5.54147 7.60763 5.55827 7.55589 5.5989 7.55553L5.91257 7.55315L6.0118 7.25557C6.02465 7.21698 6.07914 7.21698 6.09198 7.25557Z" fill="#F5F5F5"/>
<path d="M7.30026 1.79212L7.39949 2.0897L7.71316 2.09209C7.75379 2.09244 7.7706 2.14424 7.73794 2.16836L7.48561 2.35473L7.58027 2.65378C7.59256 2.69247 7.54843 2.72457 7.51537 2.7009L7.2602 2.5185L7.00502 2.7009C6.97196 2.72451 6.92793 2.69247 6.94012 2.65378L7.03478 2.35473L6.78245 2.16836C6.74979 2.14419 6.7666 2.09244 6.80723 2.09209L7.1209 2.0897L7.22013 1.79212C7.23298 1.75363 7.28741 1.75363 7.30026 1.79212Z" fill="#F5F5F5"/>
<path d="M7.30026 3.34881L7.39949 3.64638L7.71316 3.64877C7.75379 3.64913 7.7706 3.70092 7.73794 3.72504L7.48561 3.91141L7.58027 4.21046C7.59256 4.24916 7.54843 4.28125 7.51537 4.25759L7.2602 4.07518L7.00502 4.25759C6.97196 4.2812 6.92793 4.24921 6.94012 4.21046L7.03478 3.91141L6.78245 3.72504C6.74979 3.70087 6.7666 3.64913 6.80723 3.64877L7.1209 3.64638L7.22013 3.34881C7.23298 3.31026 7.28741 3.31026 7.30026 3.34881Z" fill="#F5F5F5"/>
<path d="M7.30026 4.90546L7.39949 5.20303L7.71316 5.20542C7.75379 5.20578 7.7706 5.25757 7.73794 5.28169L7.48561 5.46806L7.58027 5.76711C7.59256 5.80581 7.54843 5.8379 7.51537 5.81424L7.2602 5.63183L7.00502 5.81424C6.97196 5.83785 6.92793 5.80581 6.94012 5.76711L7.03478 5.46806L6.78245 5.28169C6.74979 5.25752 6.7666 5.20578 6.80723 5.20542L7.1209 5.20303L7.22013 4.90546C7.23298 4.86691 7.28741 4.86691 7.30026 4.90546Z" fill="#F5F5F5"/>
<path d="M7.30026 6.4621L7.39949 6.75967L7.71316 6.76206C7.75379 6.76242 7.7706 6.81421 7.73794 6.83833L7.48561 7.0247L7.58027 7.32375C7.59256 7.36245 7.54843 7.39454 7.51537 7.37088L7.2602 7.18847L7.00502 7.37088C6.97196 7.39449 6.92793 7.36245 6.94012 7.32375L7.03478 7.0247L6.78245 6.83833C6.74979 6.81416 6.7666 6.76242 6.80723 6.76206L7.1209 6.75967L7.22013 6.4621C7.23298 6.4236 7.28741 6.4236 7.30026 6.4621Z" fill="#F5F5F5"/>
<path d="M8.50854 1.02894L8.60777 1.32652L8.92145 1.3289C8.96207 1.32926 8.97888 1.38105 8.94623 1.40517L8.6939 1.59154L8.78855 1.89059C8.80084 1.92929 8.75671 1.96138 8.72365 1.93772L8.46848 1.75531L8.2133 1.93772C8.18024 1.96133 8.13622 1.92929 8.1484 1.89059L8.24306 1.59154L7.99073 1.40517C7.95808 1.381 7.97488 1.32926 8.01551 1.3289L8.32919 1.32652L8.42841 1.02894C8.44116 0.990395 8.4957 0.990395 8.50854 1.02894Z" fill="#F5F5F5"/>
<path d="M8.50854 2.58558L8.60777 2.88316L8.92145 2.88554C8.96207 2.8859 8.97888 2.93769 8.94623 2.96182L8.6939 3.14818L8.78855 3.44723C8.80084 3.48593 8.75671 3.51802 8.72365 3.49436L8.46848 3.31195L8.2133 3.49436C8.18024 3.51797 8.13622 3.48593 8.1484 3.44723L8.24306 3.14818L7.99073 2.96182C7.95808 2.93764 7.97488 2.8859 8.01551 2.88554L8.32919 2.88316L8.42841 2.58558C8.44116 2.54709 8.4957 2.54709 8.50854 2.58558Z" fill="#F5F5F5"/>
<path d="M8.50854 4.14223L8.60777 4.4398L8.92145 4.44219C8.96207 4.44255 8.97888 4.49434 8.94623 4.51847L8.6939 4.70483L8.78855 5.00388C8.80084 5.04258 8.75671 5.07467 8.72365 5.05101L8.46848 4.8686L8.2133 5.05101C8.18024 5.07462 8.13622 5.04258 8.1484 5.00388L8.24306 4.70483L7.99073 4.51847C7.95808 4.49429 7.97488 4.44255 8.01551 4.44219L8.32919 4.4398L8.42841 4.14223C8.44116 4.10373 8.4957 4.10373 8.50854 4.14223Z" fill="#F5F5F5"/>
<path d="M8.50854 5.69891L8.60777 5.99649L8.92145 5.99888C8.96207 5.99923 8.97888 6.05103 8.94623 6.07515L8.6939 6.26152L8.78855 6.56057C8.80084 6.59926 8.75671 6.63136 8.72365 6.60769L8.46848 6.42529L8.2133 6.60769C8.18024 6.6313 8.13622 6.59926 8.1484 6.56057L8.24306 6.26152L7.99073 6.07515C7.95808 6.05098 7.97488 5.99923 8.01551 5.99888L8.32919 5.99649L8.42841 5.69891C8.44116 5.66037 8.4957 5.66037 8.50854 5.69891Z" fill="#F5F5F5"/>
<path d="M8.50854 7.25557L8.60777 7.55315L8.92145 7.55553C8.96207 7.55589 8.97888 7.60768 8.94623 7.63181L8.6939 7.81817L8.78855 8.11722C8.80084 8.15592 8.75671 8.18801 8.72365 8.16435L8.46848 7.98194L8.2133 8.16435C8.18024 8.18796 8.13622 8.15592 8.1484 8.11722L8.24306 7.81817L7.99073 7.63181C7.95808 7.60763 7.97488 7.55589 8.01551 7.55553L8.32919 7.55315L8.42841 7.25557C8.44116 7.21698 8.4957 7.21698 8.50854 7.25557Z" fill="#F5F5F5"/>
<path d="M9.71675 1.79212L9.81598 2.0897L10.1297 2.09209C10.1703 2.09244 10.1871 2.14424 10.1544 2.16836L9.9021 2.35473L9.99676 2.65378C10.009 2.69247 9.96492 2.72457 9.93186 2.7009L9.67668 2.5185L9.42151 2.7009C9.38845 2.72451 9.34442 2.69247 9.35661 2.65378L9.45127 2.35473L9.19893 2.16836C9.16628 2.14419 9.18309 2.09244 9.22372 2.09209L9.53739 2.0897L9.63662 1.79212C9.64941 1.75363 9.70395 1.75363 9.71675 1.79212Z" fill="#F5F5F5"/>
<path d="M9.71675 3.34881L9.81598 3.64638L10.1297 3.64877C10.1703 3.64913 10.1871 3.70092 10.1544 3.72504L9.9021 3.91141L9.99676 4.21046C10.009 4.24916 9.96492 4.28125 9.93186 4.25759L9.67668 4.07518L9.42151 4.25759C9.38845 4.2812 9.34442 4.24921 9.35661 4.21046L9.45127 3.91141L9.19893 3.72504C9.16628 3.70087 9.18309 3.64913 9.22372 3.64877L9.53739 3.64638L9.63662 3.34881C9.64941 3.31026 9.70395 3.31026 9.71675 3.34881Z" fill="#F5F5F5"/>
<path d="M9.71675 4.90546L9.81598 5.20303L10.1297 5.20542C10.1703 5.20578 10.1871 5.25757 10.1544 5.28169L9.9021 5.46806L9.99676 5.76711C10.009 5.80581 9.96492 5.8379 9.93186 5.81424L9.67668 5.63183L9.42151 5.81424C9.38845 5.83785 9.34442 5.80581 9.35661 5.76711L9.45127 5.46806L9.19893 5.28169C9.16628 5.25752 9.18309 5.20578 9.22372 5.20542L9.53739 5.20303L9.63662 4.90546C9.64941 4.86691 9.70395 4.86691 9.71675 4.90546Z" fill="#F5F5F5"/>
<path d="M9.71675 6.4621L9.81598 6.75967L10.1297 6.76206C10.1703 6.76242 10.1871 6.81421 10.1544 6.83833L9.9021 7.0247L9.99676 7.32375C10.009 7.36245 9.96492 7.39454 9.93186 7.37088L9.67668 7.18847L9.42151 7.37088C9.38845 7.39449 9.34442 7.36245 9.35661 7.32375L9.45127 7.0247L9.19893 6.83833C9.16628 6.81416 9.18309 6.76242 9.22372 6.76206L9.53739 6.75967L9.63662 6.4621C9.64941 6.4236 9.70395 6.4236 9.71675 6.4621Z" fill="#F5F5F5"/>
<path d="M10.925 1.02894L11.0243 1.32652L11.3379 1.3289C11.3786 1.32926 11.3954 1.38105 11.3627 1.40517L11.1104 1.59154L11.205 1.89059C11.2173 1.92929 11.1732 1.96138 11.1401 1.93772L10.885 1.75531L10.6298 1.93772C10.5967 1.96133 10.5527 1.92929 10.5649 1.89059L10.6595 1.59154L10.4072 1.40517C10.3746 1.381 10.3914 1.32926 10.432 1.3289L10.7457 1.32652L10.8449 1.02894C10.8577 0.990395 10.9121 0.990395 10.925 1.02894Z" fill="#F5F5F5"/>
<path d="M10.925 2.58558L11.0243 2.88316L11.3379 2.88554C11.3786 2.8859 11.3954 2.93769 11.3627 2.96182L11.1104 3.14818L11.205 3.44723C11.2173 3.48593 11.1732 3.51802 11.1401 3.49436L10.885 3.31195L10.6298 3.49436C10.5967 3.51797 10.5527 3.48593 10.5649 3.44723L10.6595 3.14818L10.4072 2.96182C10.3746 2.93764 10.3914 2.8859 10.432 2.88554L10.7457 2.88316L10.8449 2.58558C10.8577 2.54709 10.9121 2.54709 10.925 2.58558Z" fill="#F5F5F5"/>
<path d="M10.925 4.14223L11.0243 4.4398L11.3379 4.44219C11.3786 4.44255 11.3954 4.49434 11.3627 4.51847L11.1104 4.70483L11.205 5.00388C11.2173 5.04258 11.1732 5.07467 11.1401 5.05101L10.885 4.8686L10.6298 5.05101C10.5967 5.07462 10.5527 5.04258 10.5649 5.00388L10.6595 4.70483L10.4072 4.51847C10.3746 4.49429 10.3914 4.44255 10.432 4.44219L10.7457 4.4398L10.8449 4.14223C10.8577 4.10373 10.9121 4.10373 10.925 4.14223Z" fill="#F5F5F5"/>
<path d="M10.925 5.69891L11.0243 5.99649L11.3379 5.99888C11.3786 5.99923 11.3954 6.05103 11.3627 6.07515L11.1104 6.26152L11.205 6.56057C11.2173 6.59926 11.1732 6.63136 11.1401 6.60769L10.885 6.42529L10.6298 6.60769C10.5967 6.6313 10.5527 6.59926 10.5649 6.56057L10.6595 6.26152L10.4072 6.07515C10.3746 6.05098 10.3914 5.99923 10.432 5.99888L10.7457 5.99649L10.8449 5.69891C10.8577 5.66037 10.9121 5.66037 10.925 5.69891Z" fill="#F5F5F5"/>
<path d="M10.925 7.25557L11.0243 7.55315L11.3379 7.55553C11.3786 7.55589 11.3954 7.60768 11.3627 7.63181L11.1104 7.81817L11.205 8.11722C11.2173 8.15592 11.1732 8.18801 11.1401 8.16435L10.885 7.98194L10.6298 8.16435C10.5967 8.18796 10.5527 8.15592 10.5649 8.11722L10.6595 7.81817L10.4072 7.63181C10.3746 7.60763 10.3914 7.55589 10.432 7.55553L10.7457 7.55315L10.8449 7.25557C10.8577 7.21698 10.9121 7.21698 10.925 7.25557Z" fill="#F5F5F5"/>
<rect x="1" y="1.51724" width="24" height="14" fill="white" fill-opacity="0.1"/>
<rect x="1.5" y="2.01724" width="23" height="13" stroke="white" stroke-opacity="0.1"/>
</svg>
