<svg width="50" height="34" viewBox="0 0 50 34" fill="none" xmlns="http://www.w3.org/2000/svg">
<path d="M49.1378 33.3793H0.862108C0.386034 33.3793 0 32.9933 0 32.5172V1.48279C0 1.00672 0.386034 0.620682 0.862108 0.620682H49.1379C49.614 0.620682 50 1.00672 50 1.48279V32.5172C49.9999 32.9934 49.6139 33.3793 49.1378 33.3793Z" fill="#F5F5F5"/>
<path d="M49.9999 3.1407H0V1.48279C0 1.00672 0.386034 0.620682 0.862108 0.620682H49.1379C49.614 0.620682 50 1.00672 50 1.48279L49.9999 3.1407Z" fill="#FF4B55"/>
<path d="M49.9999 10.7002H0V13.2201H49.9999V10.7002Z" fill="#FF4B55"/>
<path d="M49.9999 5.66018H0V8.1801H49.9999V5.66018Z" fill="#FF4B55"/>
<path d="M49.9999 18.2599H0.862108C0.386034 18.2599 0 17.8739 0 17.3978V15.7399H49.9999V18.2599Z" fill="#FF4B55"/>
<path d="M49.9999 25.8203H0V28.3402H49.9999V25.8203Z" fill="#FF4B55"/>
<path d="M49.1378 33.3793H0.862108C0.386034 33.3793 0 32.9932 0 32.5172V30.8593H49.9999V32.5173C49.9999 32.9933 49.6139 33.3793 49.1378 33.3793Z" fill="#FF4B55"/>
<path d="M49.9999 20.7802H0V23.3001H49.9999V20.7802Z" fill="#FF4B55"/>
<path d="M22.4137 0.620815H0.862108C0.386034 0.620815 0 1.00675 0 1.48282V17.3978C0 17.8739 0.386034 18.2599 0.862108 18.2599H22.4138C22.8899 18.2599 23.2759 17.8739 23.2759 17.3978V1.48282C23.2758 1.00675 22.8898 0.620815 22.4137 0.620815Z" fill="#41479B"/>
<path d="M2.42152 2.59944L2.61234 3.1717L3.21557 3.17629C3.29369 3.17697 3.32602 3.27658 3.26322 3.32297L2.77797 3.68137L2.96 4.25646C2.98363 4.33088 2.89877 4.3926 2.8352 4.34709L2.34447 3.99641L1.85375 4.34719C1.79018 4.3926 1.70551 4.33098 1.72895 4.25656L1.91098 3.68146L1.42573 3.32307C1.36293 3.27658 1.39526 3.17707 1.47338 3.17639L2.0766 3.1718L2.26742 2.59953C2.29203 2.52532 2.39672 2.52532 2.42152 2.59944Z" fill="#F5F5F5"/>
<path d="M2.42114 5.59295L2.61196 6.16522L3.21518 6.16981C3.2933 6.17049 3.32563 6.2701 3.26283 6.31648L2.77758 6.67488L2.95961 7.24998C2.98324 7.32439 2.89838 7.38611 2.83481 7.3406L2.34409 6.98992L1.85336 7.3407C1.78979 7.38611 1.70512 7.32449 1.72856 7.25008L1.91059 6.67498L1.42534 6.31658C1.36254 6.2701 1.39487 6.17059 1.47299 6.1699L2.07621 6.16531L2.26703 5.59305C2.29164 5.51893 2.39633 5.51893 2.42114 5.59295Z" fill="#F5F5F5"/>
<path d="M2.42114 8.58651L2.61196 9.15877L3.21518 9.16336C3.2933 9.16405 3.32563 9.26365 3.26283 9.31004L2.77758 9.66844L2.95961 10.2435C2.98324 10.3179 2.89838 10.3797 2.83481 10.3342L2.34409 9.98348L1.85336 10.3343C1.78979 10.3797 1.70512 10.318 1.72856 10.2436L1.91059 9.66854L1.42534 9.31014C1.36254 9.26365 1.39487 9.16414 1.47299 9.16346L2.07621 9.15887L2.26703 8.58661C2.29164 8.51248 2.39633 8.51248 2.42114 8.58651Z" fill="#F5F5F5"/>
<path d="M2.42114 11.5802L2.61196 12.1525L3.21518 12.1571C3.2933 12.1577 3.32563 12.2573 3.26283 12.3037L2.77758 12.6621L2.95961 13.2372C2.98324 13.3116 2.89838 13.3734 2.83481 13.3279L2.34409 12.9772L1.85336 13.3279C1.78979 13.3734 1.70512 13.3117 1.72856 13.2373L1.91059 12.6622L1.42534 12.3038C1.36254 12.2573 1.39487 12.1578 1.47299 12.1572L2.07621 12.1526L2.26703 11.5803C2.29164 11.5061 2.39633 11.5061 2.42114 11.5802Z" fill="#F5F5F5"/>
<path d="M2.42114 14.5737L2.61196 15.146L3.21518 15.1505C3.2933 15.1512 3.32563 15.2508 3.26283 15.2972L2.77758 15.6556L2.95961 16.2307C2.98324 16.3051 2.89838 16.3669 2.83481 16.3213L2.34409 15.9707L1.85336 16.3214C1.78979 16.3669 1.70512 16.3052 1.72856 16.2308L1.91059 15.6557L1.42534 15.2973C1.36254 15.2508 1.39487 15.1513 1.47299 15.1506L2.07621 15.1461L2.26703 14.5738C2.29164 14.4995 2.39633 14.4995 2.42114 14.5737Z" fill="#F5F5F5"/>
<path d="M4.74458 4.06708L4.9354 4.63934L5.53862 4.64393C5.61675 4.64461 5.64907 4.74422 5.58628 4.79061L5.10102 5.14901L5.28306 5.72411C5.30669 5.79852 5.22183 5.86024 5.15825 5.81473L4.66753 5.46395L4.17681 5.81473C4.11323 5.86014 4.02857 5.79852 4.052 5.72411L4.23403 5.14901L3.74878 4.79061C3.68599 4.74413 3.71831 4.64461 3.79644 4.64393L4.39966 4.63934L4.59048 4.06708C4.61499 3.99305 4.71987 3.99305 4.74458 4.06708Z" fill="#F5F5F5"/>
<path d="M4.74458 7.06071L4.9354 7.63297L5.53862 7.63756C5.61675 7.63824 5.64907 7.73785 5.58628 7.78424L5.10102 8.14264L5.28306 8.71773C5.30669 8.79215 5.22183 8.85386 5.15825 8.80836L4.66753 8.45758L4.17681 8.80836C4.11323 8.85377 4.02857 8.79224 4.052 8.71773L4.23403 8.14264L3.74878 7.78424C3.68599 7.73775 3.71831 7.63824 3.79644 7.63756L4.39966 7.63297L4.59048 7.06071C4.61499 6.98659 4.71987 6.98659 4.74458 7.06071Z" fill="#F5F5F5"/>
<path d="M4.74458 10.0543L4.9354 10.6265L5.53862 10.6311C5.61675 10.6318 5.64907 10.7314 5.58628 10.7778L5.10102 11.1362L5.28306 11.7113C5.30669 11.7857 5.22183 11.8474 5.15825 11.8019L4.66753 11.4511L4.17681 11.8019C4.11323 11.8473 4.02857 11.7857 4.052 11.7113L4.23403 11.1362L3.74878 10.7778C3.68599 10.7313 3.71831 10.6318 3.79644 10.6311L4.39966 10.6265L4.59048 10.0543C4.61499 9.98014 4.71987 9.98014 4.74458 10.0543Z" fill="#F5F5F5"/>
<path d="M4.74458 13.0478L4.9354 13.6201L5.53862 13.6247C5.61675 13.6253 5.64907 13.725 5.58628 13.7713L5.10102 14.1297L5.28306 14.7048C5.30669 14.7792 5.22183 14.841 5.15825 14.7955L4.66753 14.4447L4.17681 14.7955C4.11323 14.8409 4.02857 14.7792 4.052 14.7048L4.23403 14.1297L3.74878 13.7713C3.68599 13.7249 3.71831 13.6253 3.79644 13.6247L4.39966 13.6201L4.59048 13.0478C4.61499 12.9738 4.71987 12.9738 4.74458 13.0478Z" fill="#F5F5F5"/>
<path d="M7.06821 2.59942L7.25903 3.17168L7.86225 3.17627C7.94037 3.17695 7.9727 3.27656 7.90991 3.32295L7.42465 3.68135L7.60668 4.25644C7.63032 4.33086 7.54545 4.39258 7.48188 4.34707L6.99116 3.99629L6.50044 4.34707C6.43686 4.39248 6.35219 4.33086 6.37563 4.25644L6.55766 3.68135L6.07241 3.32295C6.00962 3.27647 6.04194 3.17695 6.12007 3.17627L6.72329 3.17168L6.91411 2.59942C6.93872 2.5253 7.0435 2.5253 7.06821 2.59942Z" fill="#F5F5F5"/>
<path d="M7.06821 5.59296L7.25903 6.16523L7.86225 6.16982C7.94037 6.1705 7.9727 6.27011 7.90991 6.3165L7.42465 6.67489L7.60668 7.24999C7.63032 7.3244 7.54545 7.38612 7.48188 7.34061L6.99116 6.98983L6.50044 7.34061C6.43686 7.38602 6.35219 7.3244 6.37563 7.24999L6.55766 6.67489L6.07241 6.3165C6.00962 6.27001 6.04194 6.1705 6.12007 6.16982L6.72329 6.16523L6.91411 5.59296C6.93872 5.51894 7.0435 5.51894 7.06821 5.59296Z" fill="#F5F5F5"/>
<path d="M7.06821 8.58652L7.25903 9.15878L7.86225 9.16338C7.94037 9.16406 7.9727 9.26367 7.90991 9.31006L7.42465 9.66845L7.60668 10.2436C7.63032 10.318 7.54545 10.3797 7.48188 10.3342L6.99116 9.98339L6.50044 10.3342C6.43686 10.3796 6.35219 10.318 6.37563 10.2436L6.55766 9.66845L6.07241 9.31006C6.00962 9.26357 6.04194 9.16406 6.12007 9.16338L6.72329 9.15878L6.91411 8.58652C6.93872 8.5125 7.0435 8.5125 7.06821 8.58652Z" fill="#F5F5F5"/>
<path d="M7.06821 11.5801L7.25903 12.1524L7.86225 12.157C7.94037 12.1577 7.9727 12.2573 7.90991 12.3037L7.42465 12.6621L7.60668 13.2372C7.63032 13.3116 7.54545 13.3733 7.48188 13.3278L6.99116 12.977L6.50044 13.3278C6.43686 13.3732 6.35219 13.3116 6.37563 13.2372L6.55766 12.6621L6.07241 12.3037C6.00962 12.2572 6.04194 12.1577 6.12007 12.157L6.72329 12.1524L6.91411 11.5801C6.93872 11.506 7.0435 11.506 7.06821 11.5801Z" fill="#F5F5F5"/>
<path d="M7.06821 14.5737L7.25903 15.146L7.86225 15.1506C7.94037 15.1512 7.9727 15.2509 7.90991 15.2972L7.42465 15.6556L7.60668 16.2307C7.63032 16.3051 7.54545 16.3669 7.48188 16.3214L6.99116 15.9706L6.50044 16.3214C6.43686 16.3668 6.35219 16.3051 6.37563 16.2307L6.55766 15.6556L6.07241 15.2972C6.00962 15.2508 6.04194 15.1512 6.12007 15.1506L6.72329 15.146L6.91411 14.5737C6.93872 14.4995 7.0435 14.4995 7.06821 14.5737Z" fill="#F5F5F5"/>
<path d="M9.39191 4.06708L9.58274 4.63934L10.186 4.64393C10.2641 4.64461 10.2964 4.74422 10.2336 4.79061L9.74836 5.14901L9.93039 5.72411C9.95402 5.79852 9.86916 5.86024 9.80559 5.81473L9.31486 5.46395L8.82414 5.81473C8.76057 5.86014 8.6759 5.79852 8.69934 5.72411L8.88137 5.14901L8.39612 4.79061C8.33332 4.74413 8.36565 4.64461 8.44377 4.64393L9.04699 4.63934L9.23781 4.06708C9.26233 3.99305 9.36721 3.99305 9.39191 4.06708Z" fill="#F5F5F5"/>
<path d="M9.39191 7.06071L9.58274 7.63297L10.186 7.63756C10.2641 7.63824 10.2964 7.73785 10.2336 7.78424L9.74836 8.14264L9.93039 8.71773C9.95402 8.79215 9.86916 8.85386 9.80559 8.80836L9.31486 8.45758L8.82414 8.80836C8.76057 8.85377 8.6759 8.79224 8.69934 8.71773L8.88137 8.14264L8.39612 7.78424C8.33332 7.73775 8.36565 7.63824 8.44377 7.63756L9.04699 7.63297L9.23781 7.06071C9.26233 6.98659 9.36721 6.98659 9.39191 7.06071Z" fill="#F5F5F5"/>
<path d="M9.39191 10.0543L9.58274 10.6265L10.186 10.6311C10.2641 10.6318 10.2964 10.7314 10.2336 10.7778L9.74836 11.1362L9.93039 11.7113C9.95402 11.7857 9.86916 11.8474 9.80559 11.8019L9.31486 11.4511L8.82414 11.8019C8.76057 11.8473 8.6759 11.7857 8.69934 11.7113L8.88137 11.1362L8.39612 10.7778C8.33332 10.7313 8.36565 10.6318 8.44377 10.6311L9.04699 10.6265L9.23781 10.0543C9.26233 9.98014 9.36721 9.98014 9.39191 10.0543Z" fill="#F5F5F5"/>
<path d="M9.39191 13.0478L9.58274 13.6201L10.186 13.6247C10.2641 13.6253 10.2964 13.725 10.2336 13.7713L9.74836 14.1297L9.93039 14.7048C9.95402 14.7792 9.86916 14.841 9.80559 14.7955L9.31486 14.4447L8.82414 14.7955C8.76057 14.8409 8.6759 14.7792 8.69934 14.7048L8.88137 14.1297L8.39612 13.7713C8.33332 13.7249 8.36565 13.6253 8.44377 13.6247L9.04699 13.6201L9.23781 13.0478C9.26233 12.9738 9.36721 12.9738 9.39191 13.0478Z" fill="#F5F5F5"/>
<path d="M11.7154 2.59942L11.9062 3.17168L12.5094 3.17627C12.5875 3.17695 12.6199 3.27656 12.5571 3.32295L12.0718 3.68135L12.2538 4.25644C12.2775 4.33086 12.1926 4.39258 12.129 4.34707L11.6382 3.99629L11.1475 4.34707C11.0839 4.39248 10.9993 4.33086 11.0227 4.25644L11.2047 3.68135L10.7195 3.32295C10.6567 3.27647 10.689 3.17695 10.7671 3.17627L11.3704 3.17168L11.5612 2.59942C11.5859 2.5253 11.6907 2.5253 11.7154 2.59942Z" fill="#F5F5F5"/>
<path d="M11.7154 5.59296L11.9062 6.16523L12.5094 6.16982C12.5875 6.1705 12.6199 6.27011 12.5571 6.3165L12.0718 6.67489L12.2538 7.24999C12.2775 7.3244 12.1926 7.38612 12.129 7.34061L11.6382 6.98983L11.1475 7.34061C11.0839 7.38602 10.9993 7.3244 11.0227 7.24999L11.2047 6.67489L10.7195 6.3165C10.6567 6.27001 10.689 6.1705 10.7671 6.16982L11.3704 6.16523L11.5612 5.59296C11.5859 5.51894 11.6907 5.51894 11.7154 5.59296Z" fill="#F5F5F5"/>
<path d="M11.7154 8.58652L11.9062 9.15878L12.5094 9.16338C12.5875 9.16406 12.6199 9.26367 12.5571 9.31006L12.0718 9.66845L12.2538 10.2436C12.2775 10.318 12.1926 10.3797 12.129 10.3342L11.6382 9.98339L11.1475 10.3342C11.0839 10.3796 10.9993 10.318 11.0227 10.2436L11.2047 9.66845L10.7195 9.31006C10.6567 9.26357 10.689 9.16406 10.7671 9.16338L11.3704 9.15878L11.5612 8.58652C11.5859 8.5125 11.6907 8.5125 11.7154 8.58652Z" fill="#F5F5F5"/>
<path d="M11.7154 11.5801L11.9062 12.1524L12.5094 12.157C12.5875 12.1577 12.6199 12.2573 12.5571 12.3037L12.0718 12.6621L12.2538 13.2372C12.2775 13.3116 12.1926 13.3733 12.129 13.3278L11.6382 12.977L11.1475 13.3278C11.0839 13.3732 10.9993 13.3116 11.0227 13.2372L11.2047 12.6621L10.7195 12.3037C10.6567 12.2572 10.689 12.1577 10.7671 12.157L11.3704 12.1524L11.5612 11.5801C11.5859 11.506 11.6907 11.506 11.7154 11.5801Z" fill="#F5F5F5"/>
<path d="M11.7154 14.5737L11.9062 15.146L12.5094 15.1506C12.5875 15.1512 12.6199 15.2509 12.5571 15.2972L12.0718 15.6556L12.2538 16.2307C12.2775 16.3051 12.1926 16.3669 12.129 16.3214L11.6382 15.9706L11.1475 16.3214C11.0839 16.3668 10.9993 16.3051 11.0227 16.2307L11.2047 15.6556L10.7195 15.2972C10.6567 15.2508 10.689 15.1512 10.7671 15.1506L11.3704 15.146L11.5612 14.5737C11.5859 14.4995 11.6907 14.4995 11.7154 14.5737Z" fill="#F5F5F5"/>
<path d="M14.039 4.06708L14.2298 4.63934L14.833 4.64393C14.9111 4.64461 14.9435 4.74422 14.8807 4.79061L14.3954 5.14901L14.5775 5.72411C14.6011 5.79852 14.5162 5.86024 14.4527 5.81473L13.9619 5.46395L13.4712 5.81473C13.4076 5.86014 13.323 5.79852 13.3464 5.72411L13.5284 5.14901L13.0432 4.79061C12.9804 4.74413 13.0127 4.64461 13.0908 4.64393L13.6941 4.63934L13.8849 4.06708C13.9096 3.99305 14.0143 3.99305 14.039 4.06708Z" fill="#F5F5F5"/>
<path d="M14.039 7.06071L14.2298 7.63297L14.833 7.63756C14.9111 7.63824 14.9435 7.73785 14.8807 7.78424L14.3954 8.14264L14.5775 8.71773C14.6011 8.79215 14.5162 8.85386 14.4527 8.80836L13.9619 8.45758L13.4712 8.80836C13.4076 8.85377 13.323 8.79224 13.3464 8.71773L13.5284 8.14264L13.0432 7.78424C12.9804 7.73775 13.0127 7.63824 13.0908 7.63756L13.6941 7.63297L13.8849 7.06071C13.9096 6.98659 14.0143 6.98659 14.039 7.06071Z" fill="#F5F5F5"/>
<path d="M14.039 10.0543L14.2298 10.6265L14.833 10.6311C14.9111 10.6318 14.9435 10.7314 14.8807 10.7778L14.3954 11.1362L14.5775 11.7113C14.6011 11.7857 14.5162 11.8474 14.4527 11.8019L13.9619 11.4511L13.4712 11.8019C13.4076 11.8473 13.323 11.7857 13.3464 11.7113L13.5284 11.1362L13.0432 10.7778C12.9804 10.7313 13.0127 10.6318 13.0908 10.6311L13.6941 10.6265L13.8849 10.0543C13.9096 9.98014 14.0143 9.98014 14.039 10.0543Z" fill="#F5F5F5"/>
<path d="M14.039 13.0478L14.2298 13.6201L14.833 13.6247C14.9111 13.6253 14.9435 13.725 14.8807 13.7713L14.3954 14.1297L14.5775 14.7048C14.6011 14.7792 14.5162 14.841 14.4527 14.7955L13.9619 14.4447L13.4712 14.7955C13.4076 14.8409 13.323 14.7792 13.3464 14.7048L13.5284 14.1297L13.0432 13.7713C12.9804 13.7249 13.0127 13.6253 13.0908 13.6247L13.6941 13.6201L13.8849 13.0478C13.9096 12.9738 14.0143 12.9738 14.039 13.0478Z" fill="#F5F5F5"/>
<path d="M16.3626 2.59942L16.5534 3.17168L17.1566 3.17627C17.2348 3.17695 17.2671 3.27656 17.2043 3.32295L16.7191 3.68135L16.9011 4.25644C16.9247 4.33086 16.8399 4.39258 16.7763 4.34707L16.2856 3.99629L15.7948 4.34707C15.7313 4.39248 15.6466 4.33086 15.67 4.25644L15.8521 3.68135L15.3668 3.32295C15.304 3.27647 15.3363 3.17695 15.4145 3.17627L16.0177 3.17168L16.2085 2.59942C16.233 2.5253 16.3379 2.5253 16.3626 2.59942Z" fill="#F5F5F5"/>
<path d="M16.3626 5.59296L16.5534 6.16523L17.1566 6.16982C17.2348 6.1705 17.2671 6.27011 17.2043 6.3165L16.7191 6.67489L16.9011 7.24999C16.9247 7.3244 16.8399 7.38612 16.7763 7.34061L16.2856 6.98983L15.7948 7.34061C15.7313 7.38602 15.6466 7.3244 15.67 7.24999L15.8521 6.67489L15.3668 6.3165C15.304 6.27001 15.3363 6.1705 15.4145 6.16982L16.0177 6.16523L16.2085 5.59296C16.233 5.51894 16.3379 5.51894 16.3626 5.59296Z" fill="#F5F5F5"/>
<path d="M16.3626 8.58652L16.5534 9.15878L17.1566 9.16338C17.2348 9.16406 17.2671 9.26367 17.2043 9.31006L16.7191 9.66845L16.9011 10.2436C16.9247 10.318 16.8399 10.3797 16.7763 10.3342L16.2856 9.98339L15.7948 10.3342C15.7313 10.3796 15.6466 10.318 15.67 10.2436L15.8521 9.66845L15.3668 9.31006C15.304 9.26357 15.3363 9.16406 15.4145 9.16338L16.0177 9.15878L16.2085 8.58652C16.233 8.5125 16.3379 8.5125 16.3626 8.58652Z" fill="#F5F5F5"/>
<path d="M16.3626 11.5801L16.5534 12.1524L17.1566 12.157C17.2348 12.1577 17.2671 12.2573 17.2043 12.3037L16.7191 12.6621L16.9011 13.2372C16.9247 13.3116 16.8399 13.3733 16.7763 13.3278L16.2856 12.977L15.7948 13.3278C15.7313 13.3732 15.6466 13.3116 15.67 13.2372L15.8521 12.6621L15.3668 12.3037C15.304 12.2572 15.3363 12.1577 15.4145 12.157L16.0177 12.1524L16.2085 11.5801C16.233 11.506 16.3379 11.506 16.3626 11.5801Z" fill="#F5F5F5"/>
<path d="M16.3626 14.5737L16.5534 15.146L17.1566 15.1506C17.2348 15.1512 17.2671 15.2509 17.2043 15.2972L16.7191 15.6556L16.9011 16.2307C16.9247 16.3051 16.8399 16.3669 16.7763 16.3214L16.2856 15.9706L15.7948 16.3214C15.7313 16.3668 15.6466 16.3051 15.67 16.2307L15.8521 15.6556L15.3668 15.2972C15.304 15.2508 15.3363 15.1512 15.4145 15.1506L16.0177 15.146L16.2085 14.5737C16.233 14.4995 16.3379 14.4995 16.3626 14.5737Z" fill="#F5F5F5"/>
<path d="M18.6861 4.06708L18.8769 4.63934L19.4801 4.64393C19.5582 4.64461 19.5905 4.74422 19.5277 4.79061L19.0425 5.14901L19.2245 5.72411C19.2482 5.79852 19.1633 5.86024 19.0997 5.81473L18.609 5.46395L18.1183 5.81473C18.0547 5.86014 17.97 5.79852 17.9935 5.72411L18.1755 5.14901L17.6903 4.79061C17.6275 4.74413 17.6598 4.64461 17.7379 4.64393L18.3411 4.63934L18.532 4.06708C18.5566 3.99305 18.6614 3.99305 18.6861 4.06708Z" fill="#F5F5F5"/>
<path d="M18.6861 7.06071L18.8769 7.63297L19.4801 7.63756C19.5582 7.63824 19.5905 7.73785 19.5277 7.78424L19.0425 8.14264L19.2245 8.71773C19.2482 8.79215 19.1633 8.85386 19.0997 8.80836L18.609 8.45758L18.1183 8.80836C18.0547 8.85377 17.97 8.79224 17.9935 8.71773L18.1755 8.14264L17.6903 7.78424C17.6275 7.73775 17.6598 7.63824 17.7379 7.63756L18.3411 7.63297L18.532 7.06071C18.5566 6.98659 18.6614 6.98659 18.6861 7.06071Z" fill="#F5F5F5"/>
<path d="M18.6861 10.0543L18.8769 10.6265L19.4801 10.6311C19.5582 10.6318 19.5905 10.7314 19.5277 10.7778L19.0425 11.1362L19.2245 11.7113C19.2482 11.7857 19.1633 11.8474 19.0997 11.8019L18.609 11.4511L18.1183 11.8019C18.0547 11.8473 17.97 11.7857 17.9935 11.7113L18.1755 11.1362L17.6903 10.7778C17.6275 10.7313 17.6598 10.6318 17.7379 10.6311L18.3411 10.6265L18.532 10.0543C18.5566 9.98014 18.6614 9.98014 18.6861 10.0543Z" fill="#F5F5F5"/>
<path d="M18.6861 13.0478L18.8769 13.6201L19.4801 13.6247C19.5582 13.6253 19.5905 13.725 19.5277 13.7713L19.0425 14.1297L19.2245 14.7048C19.2482 14.7792 19.1633 14.841 19.0997 14.7955L18.609 14.4447L18.1183 14.7955C18.0547 14.8409 17.97 14.7792 17.9935 14.7048L18.1755 14.1297L17.6903 13.7713C17.6275 13.7249 17.6598 13.6253 17.7379 13.6247L18.3411 13.6201L18.532 13.0478C18.5566 12.9738 18.6614 12.9738 18.6861 13.0478Z" fill="#F5F5F5"/>
<path d="M21.0097 2.59942L21.2005 3.17168L21.8037 3.17627C21.8818 3.17695 21.9142 3.27656 21.8514 3.32295L21.3661 3.68135L21.5482 4.25644C21.5718 4.33086 21.4869 4.39258 21.4233 4.34707L20.9326 3.99629L20.4419 4.34707C20.3783 4.39248 20.2937 4.33086 20.3171 4.25644L20.4991 3.68135L20.0139 3.32295C19.9511 3.27647 19.9834 3.17695 20.0615 3.17627L20.6648 3.17168L20.8556 2.59942C20.8802 2.5253 20.9849 2.5253 21.0097 2.59942Z" fill="#F5F5F5"/>
<path d="M21.0097 5.59296L21.2005 6.16523L21.8037 6.16982C21.8818 6.1705 21.9142 6.27011 21.8514 6.3165L21.3661 6.67489L21.5482 7.24999C21.5718 7.3244 21.4869 7.38612 21.4233 7.34061L20.9326 6.98983L20.4419 7.34061C20.3783 7.38602 20.2937 7.3244 20.3171 7.24999L20.4991 6.67489L20.0139 6.3165C19.9511 6.27001 19.9834 6.1705 20.0615 6.16982L20.6648 6.16523L20.8556 5.59296C20.8802 5.51894 20.9849 5.51894 21.0097 5.59296Z" fill="#F5F5F5"/>
<path d="M21.0097 8.58652L21.2005 9.15878L21.8037 9.16338C21.8818 9.16406 21.9142 9.26367 21.8514 9.31006L21.3661 9.66845L21.5482 10.2436C21.5718 10.318 21.4869 10.3797 21.4233 10.3342L20.9326 9.98339L20.4419 10.3342C20.3783 10.3796 20.2937 10.318 20.3171 10.2436L20.4991 9.66845L20.0139 9.31006C19.9511 9.26357 19.9834 9.16406 20.0615 9.16338L20.6648 9.15878L20.8556 8.58652C20.8802 8.5125 20.9849 8.5125 21.0097 8.58652Z" fill="#F5F5F5"/>
<path d="M21.0097 11.5801L21.2005 12.1524L21.8037 12.157C21.8818 12.1577 21.9142 12.2573 21.8514 12.3037L21.3661 12.6621L21.5482 13.2372C21.5718 13.3116 21.4869 13.3733 21.4233 13.3278L20.9326 12.977L20.4419 13.3278C20.3783 13.3732 20.2937 13.3116 20.3171 13.2372L20.4991 12.6621L20.0139 12.3037C19.9511 12.2572 19.9834 12.1577 20.0615 12.157L20.6648 12.1524L20.8556 11.5801C20.8802 11.506 20.9849 11.506 21.0097 11.5801Z" fill="#F5F5F5"/>
<path d="M21.0097 14.5737L21.2005 15.146L21.8037 15.1506C21.8818 15.1512 21.9142 15.2509 21.8514 15.2972L21.3661 15.6556L21.5482 16.2307C21.5718 16.3051 21.4869 16.3669 21.4233 16.3214L20.9326 15.9706L20.4419 16.3214C20.3783 16.3668 20.2937 16.3051 20.3171 16.2307L20.4991 15.6556L20.0139 15.2972C19.9511 15.2508 19.9834 15.1512 20.0615 15.1506L20.6648 15.146L20.8556 14.5737C20.8802 14.4995 20.9849 14.4995 21.0097 14.5737Z" fill="#F5F5F5"/>
</svg>
