<svg width="373" height="71" viewBox="0 0 373 71" fill="none" xmlns="http://www.w3.org/2000/svg">
<path d="M76.4432 46V11.0909H99.1477V16.392H82.767V25.8693H97.9716V31.1705H82.767V40.6989H99.2841V46H76.4432ZM105.599 46V11.0909H111.923V40.6989H127.298V46H105.599ZM126.8 16.392V11.0909H154.652V16.392H143.862V46H137.589V16.392H126.8ZM189.668 28.5455C189.668 32.3068 188.963 35.5284 187.554 38.2102C186.156 40.8807 184.247 42.9261 181.827 44.3466C179.418 45.767 176.685 46.4773 173.628 46.4773C170.571 46.4773 167.832 45.767 165.412 44.3466C163.003 42.9148 161.094 40.8636 159.685 38.1932C158.287 35.5114 157.588 32.2955 157.588 28.5455C157.588 24.7841 158.287 21.5682 159.685 18.8977C161.094 16.2159 163.003 14.1648 165.412 12.7443C167.832 11.3239 170.571 10.6136 173.628 10.6136C176.685 10.6136 179.418 11.3239 181.827 12.7443C184.247 14.1648 186.156 16.2159 187.554 18.8977C188.963 21.5682 189.668 24.7841 189.668 28.5455ZM183.31 28.5455C183.31 25.8977 182.895 23.6648 182.065 21.8466C181.247 20.017 180.111 18.6364 178.656 17.7045C177.202 16.7614 175.526 16.2898 173.628 16.2898C171.73 16.2898 170.054 16.7614 168.599 17.7045C167.145 18.6364 166.003 20.017 165.173 21.8466C164.355 23.6648 163.946 25.8977 163.946 28.5455C163.946 31.1932 164.355 33.4318 165.173 35.2614C166.003 37.0795 167.145 38.4602 168.599 39.4034C170.054 40.3352 171.73 40.8011 173.628 40.8011C175.526 40.8011 177.202 40.3352 178.656 39.4034C180.111 38.4602 181.247 37.0795 182.065 35.2614C182.895 33.4318 183.31 31.1932 183.31 28.5455ZM224.334 11.0909V46H218.709L202.26 22.2216H201.97V46H195.646V11.0909H201.305L217.737 34.8864H218.044V11.0909H224.334ZM243.131 46V11.0909H249.455V27.1307H249.881L263.5 11.0909H271.222L257.722 26.7557L271.341 46H263.739L253.324 31.0341L249.455 35.6023V46H243.131ZM304.933 28.5455C304.933 32.3068 304.229 35.5284 302.82 38.2102C301.422 40.8807 299.513 42.9261 297.092 44.3466C294.683 45.767 291.95 46.4773 288.893 46.4773C285.837 46.4773 283.098 45.767 280.678 44.3466C278.268 42.9148 276.359 40.8636 274.95 38.1932C273.553 35.5114 272.854 32.2955 272.854 28.5455C272.854 24.7841 273.553 21.5682 274.95 18.8977C276.359 16.2159 278.268 14.1648 280.678 12.7443C283.098 11.3239 285.837 10.6136 288.893 10.6136C291.95 10.6136 294.683 11.3239 297.092 12.7443C299.513 14.1648 301.422 16.2159 302.82 18.8977C304.229 21.5682 304.933 24.7841 304.933 28.5455ZM298.575 28.5455C298.575 25.8977 298.161 23.6648 297.331 21.8466C296.513 20.017 295.376 18.6364 293.922 17.7045C292.467 16.7614 290.791 16.2898 288.893 16.2898C286.996 16.2898 285.32 16.7614 283.865 17.7045C282.411 18.6364 281.268 20.017 280.439 21.8466C279.621 23.6648 279.212 25.8977 279.212 28.5455C279.212 31.1932 279.621 33.4318 280.439 35.2614C281.268 37.0795 282.411 38.4602 283.865 39.4034C285.32 40.3352 286.996 40.8011 288.893 40.8011C290.791 40.8011 292.467 40.3352 293.922 39.4034C295.376 38.4602 296.513 37.0795 297.331 35.2614C298.161 33.4318 298.575 31.1932 298.575 28.5455ZM310.912 46V11.0909H317.236V40.6989H332.611V46H310.912ZM343.895 46H337.145L349.435 11.0909H357.241L369.548 46H362.798L353.474 18.25H353.202L343.895 46ZM344.116 32.3125H362.526V37.392H344.116V32.3125Z" fill="#301453"/>
<path d="M12.3507 11.091C24.5573 7.71273 30.7948 16.1657 35.4043 20.9479L64 8V17.4484L34.7365 30.8779L31.0233 27.0609C27.5111 23.4131 22.2952 16.4435 14.015 20.3845C3.75065 27.0609 11.3483 34.6821 15.576 39.3505C19.3041 42.9389 23.9825 47.8061 31.0233 55.0959L34.7151 58.8471L64 42.2943V54.1924L33.9043 71C24.6639 61.4431 19.2922 55.8957 14.3994 51.1912C8.85093 45.0709 4.29596 41.7874 1.14717 35.3749C-2.37396 25.3937 2.4489 14.7105 12.3507 11.091Z" fill="#301453"/>
<path d="M64 23.3974L34.7234 38.095V47.8934L64 33.1958V23.3974Z" fill="#301453"/>
<path d="M79.8324 67.1726C79.0611 67.1726 78.3707 66.9744 77.7614 66.5781C77.152 66.1818 76.6705 65.6065 76.3168 64.8523C75.9631 64.098 75.7862 63.1818 75.7862 62.1037C75.7862 61.0128 75.9652 60.0923 76.3232 59.3423C76.6854 58.5881 77.1733 58.0192 77.7869 57.6357C78.4006 57.2479 79.0845 57.054 79.8388 57.054C80.4141 57.054 80.8871 57.152 81.2578 57.348C81.6286 57.5398 81.9226 57.772 82.1399 58.0447C82.3572 58.3132 82.5256 58.5668 82.6449 58.8054H82.7408V53.9091H85.0611V67H82.7855V65.4531H82.6449C82.5256 65.6918 82.353 65.9453 82.1271 66.2138C81.9013 66.478 81.603 66.7038 81.2322 66.8913C80.8615 67.0788 80.3949 67.1726 79.8324 67.1726ZM80.478 65.2741C80.968 65.2741 81.3857 65.142 81.7308 64.8778C82.076 64.6094 82.3381 64.2365 82.517 63.7592C82.696 63.282 82.7855 62.7259 82.7855 62.0909C82.7855 61.456 82.696 60.9041 82.517 60.4354C82.3423 59.9666 82.0824 59.6023 81.7372 59.3423C81.3963 59.0824 80.9766 58.9524 80.478 58.9524C79.9624 58.9524 79.532 59.0866 79.1868 59.3551C78.8416 59.6236 78.5817 59.9943 78.407 60.4673C78.2322 60.9403 78.1449 61.4815 78.1449 62.0909C78.1449 62.7045 78.2322 63.2521 78.407 63.7337C78.5859 64.2109 78.848 64.5881 79.1932 64.8651C79.5426 65.1378 79.9709 65.2741 80.478 65.2741ZM92.2334 67.1918C91.249 67.1918 90.3989 66.9872 89.683 66.5781C88.9713 66.1648 88.4237 65.581 88.0402 64.8267C87.6567 64.0682 87.4649 63.1754 87.4649 62.1484C87.4649 61.1385 87.6567 60.2521 88.0402 59.4893C88.428 58.7223 88.9692 58.1257 89.6638 57.6996C90.3584 57.2692 91.1745 57.054 92.112 57.054C92.7171 57.054 93.2881 57.152 93.825 57.348C94.3662 57.5398 94.8435 57.8381 95.2568 58.2429C95.6745 58.6477 96.0026 59.1634 96.2412 59.7898C96.4799 60.4119 96.5992 61.1534 96.5992 62.0142V62.7237H88.5516V61.1641H94.3811C94.3769 60.7209 94.281 60.3267 94.0935 59.9815C93.906 59.6321 93.6439 59.3572 93.3073 59.157C92.9749 58.9567 92.5871 58.8565 92.1439 58.8565C91.6709 58.8565 91.2554 58.9716 90.8975 59.2017C90.5395 59.4276 90.2604 59.7259 90.0601 60.0966C89.8641 60.4631 89.7639 60.8658 89.7597 61.3047V62.6662C89.7597 63.2372 89.8641 63.7273 90.0729 64.1364C90.2817 64.5412 90.5736 64.8523 90.9486 65.0696C91.3236 65.2827 91.7625 65.3892 92.2654 65.3892C92.602 65.3892 92.9067 65.3423 93.1794 65.2486C93.4522 65.1506 93.6887 65.0078 93.8889 64.8203C94.0892 64.6328 94.2405 64.4006 94.3428 64.1236L96.5033 64.3665C96.3669 64.9375 96.107 65.4361 95.7235 65.8622C95.3442 66.2841 94.8584 66.6122 94.2661 66.8466C93.6737 67.0767 92.9962 67.1918 92.2334 67.1918ZM106.677 59.777L104.567 60.0071C104.508 59.794 104.403 59.5938 104.254 59.4062C104.109 59.2188 103.913 59.0675 103.666 58.9524C103.419 58.8374 103.116 58.7798 102.758 58.7798C102.277 58.7798 101.872 58.8842 101.544 59.093C101.22 59.3018 101.06 59.5724 101.064 59.9048C101.06 60.1903 101.165 60.4226 101.378 60.6016C101.595 60.7805 101.953 60.9276 102.452 61.0426L104.126 61.4006C105.055 61.6009 105.746 61.9183 106.197 62.353C106.653 62.7876 106.883 63.3565 106.888 64.0597C106.883 64.6776 106.702 65.223 106.344 65.696C105.991 66.1648 105.498 66.5312 104.868 66.7955C104.237 67.0597 103.513 67.1918 102.694 67.1918C101.493 67.1918 100.525 66.9403 99.7924 66.4375C99.0595 65.9304 98.6227 65.2251 98.4821 64.3217L100.738 64.1044C100.841 64.5476 101.058 64.8821 101.39 65.108C101.723 65.3338 102.155 65.4467 102.688 65.4467C103.238 65.4467 103.679 65.3338 104.011 65.108C104.348 64.8821 104.516 64.603 104.516 64.2706C104.516 63.9893 104.407 63.7571 104.19 63.5739C103.977 63.3906 103.645 63.25 103.193 63.152L101.518 62.8004C100.577 62.6044 99.8798 62.2741 99.4281 61.8097C98.9764 61.3409 98.7527 60.7486 98.7569 60.0327C98.7527 59.4276 98.9167 58.9034 99.2491 58.4602C99.5858 58.0128 100.052 57.6676 100.649 57.4247C101.25 57.1776 101.942 57.054 102.726 57.054C103.877 57.054 104.782 57.299 105.443 57.7891C106.108 58.2791 106.519 58.9418 106.677 59.777ZM109.156 67V57.1818H111.47V67H109.156ZM110.319 55.7884C109.953 55.7884 109.637 55.6669 109.373 55.424C109.109 55.1768 108.977 54.8807 108.977 54.5355C108.977 54.1861 109.109 53.8899 109.373 53.647C109.637 53.3999 109.953 53.2763 110.319 53.2763C110.69 53.2763 111.005 53.3999 111.265 53.647C111.529 53.8899 111.661 54.1861 111.661 54.5355C111.661 54.8807 111.529 55.1768 111.265 55.424C111.005 55.6669 110.69 55.7884 110.319 55.7884ZM118.479 70.8864C117.648 70.8864 116.934 70.7734 116.338 70.5476C115.741 70.326 115.262 70.0277 114.899 69.6527C114.537 69.2777 114.286 68.8622 114.145 68.4062L116.229 67.9013C116.323 68.093 116.459 68.2827 116.638 68.4702C116.817 68.6619 117.058 68.8196 117.36 68.9432C117.667 69.071 118.053 69.1349 118.517 69.1349C119.173 69.1349 119.717 68.9751 120.147 68.6555C120.578 68.3402 120.793 67.8203 120.793 67.0959V65.2358H120.678C120.558 65.4744 120.384 65.7195 120.154 65.9709C119.928 66.2223 119.627 66.4332 119.252 66.6037C118.882 66.7741 118.415 66.8594 117.852 66.8594C117.098 66.8594 116.414 66.6825 115.801 66.3288C115.191 65.9709 114.705 65.4382 114.343 64.7308C113.985 64.0192 113.806 63.1286 113.806 62.0589C113.806 60.9808 113.985 60.071 114.343 59.3295C114.705 58.5838 115.193 58.0192 115.807 57.6357C116.421 57.2479 117.105 57.054 117.859 57.054C118.434 57.054 118.907 57.152 119.278 57.348C119.653 57.5398 119.951 57.772 120.173 58.0447C120.394 58.3132 120.563 58.5668 120.678 58.8054H120.806V57.1818H123.088V67.1598C123.088 67.9993 122.887 68.6939 122.487 69.2436C122.086 69.7933 121.539 70.2045 120.844 70.4773C120.149 70.75 119.361 70.8864 118.479 70.8864ZM118.498 65.044C118.988 65.044 119.406 64.9247 119.751 64.6861C120.096 64.4474 120.358 64.1044 120.537 63.657C120.716 63.2095 120.806 62.6726 120.806 62.0462C120.806 61.4283 120.716 60.8871 120.537 60.4226C120.362 59.9581 120.102 59.598 119.757 59.3423C119.416 59.0824 118.997 58.9524 118.498 58.9524C117.982 58.9524 117.552 59.0866 117.207 59.3551C116.862 59.6236 116.602 59.9922 116.427 60.4609C116.252 60.9254 116.165 61.4538 116.165 62.0462C116.165 62.647 116.252 63.1733 116.427 63.625C116.606 64.0724 116.868 64.4219 117.213 64.6733C117.563 64.9205 117.991 65.044 118.498 65.044ZM128.133 61.2472V67H125.819V57.1818H128.031V58.8501H128.146C128.372 58.3004 128.732 57.8636 129.226 57.5398C129.725 57.2159 130.34 57.054 131.073 57.054C131.751 57.054 132.341 57.1989 132.844 57.4886C133.351 57.7784 133.743 58.1982 134.02 58.7479C134.301 59.2976 134.44 59.9645 134.435 60.7486V67H132.122V61.1065C132.122 60.4503 131.951 59.9368 131.61 59.5661C131.274 59.1953 130.807 59.0099 130.21 59.0099C129.806 59.0099 129.445 59.0994 129.13 59.2784C128.819 59.4531 128.574 59.7067 128.395 60.0391C128.22 60.3714 128.133 60.7741 128.133 61.2472ZM137.148 67V57.1818H139.462V67H137.148ZM138.311 55.7884C137.945 55.7884 137.629 55.6669 137.365 55.424C137.101 55.1768 136.969 54.8807 136.969 54.5355C136.969 54.1861 137.101 53.8899 137.365 53.647C137.629 53.3999 137.945 53.2763 138.311 53.2763C138.682 53.2763 138.997 53.3999 139.257 53.647C139.521 53.8899 139.653 54.1861 139.653 54.5355C139.653 54.8807 139.521 55.1768 139.257 55.424C138.997 55.6669 138.682 55.7884 138.311 55.7884ZM144.515 61.2472V67H142.201V57.1818H144.413V58.8501H144.528C144.754 58.3004 145.114 57.8636 145.608 57.5398C146.107 57.2159 146.722 57.054 147.455 57.054C148.133 57.054 148.723 57.1989 149.226 57.4886C149.733 57.7784 150.125 58.1982 150.402 58.7479C150.683 59.2976 150.822 59.9645 150.818 60.7486V67H148.504V61.1065C148.504 60.4503 148.333 59.9368 147.992 59.5661C147.656 59.1953 147.189 59.0099 146.592 59.0099C146.188 59.0099 145.828 59.0994 145.512 59.2784C145.201 59.4531 144.956 59.7067 144.777 60.0391C144.602 60.3714 144.515 60.7741 144.515 61.2472ZM157.8 70.8864C156.969 70.8864 156.255 70.7734 155.658 70.5476C155.062 70.326 154.582 70.0277 154.22 69.6527C153.858 69.2777 153.607 68.8622 153.466 68.4062L155.55 67.9013C155.643 68.093 155.78 68.2827 155.959 68.4702C156.138 68.6619 156.379 68.8196 156.681 68.9432C156.988 69.071 157.374 69.1349 157.838 69.1349C158.494 69.1349 159.038 68.9751 159.468 68.6555C159.898 68.3402 160.114 67.8203 160.114 67.0959V65.2358H159.999C159.879 65.4744 159.705 65.7195 159.474 65.9709C159.249 66.2223 158.948 66.4332 158.573 66.6037C158.202 66.7741 157.736 66.8594 157.173 66.8594C156.419 66.8594 155.735 66.6825 155.121 66.3288C154.512 65.9709 154.026 65.4382 153.664 64.7308C153.306 64.0192 153.127 63.1286 153.127 62.0589C153.127 60.9808 153.306 60.071 153.664 59.3295C154.026 58.5838 154.514 58.0192 155.128 57.6357C155.742 57.2479 156.425 57.054 157.18 57.054C157.755 57.054 158.228 57.152 158.599 57.348C158.974 57.5398 159.272 57.772 159.494 58.0447C159.715 58.3132 159.884 58.5668 159.999 58.8054H160.126V57.1818H162.408V67.1598C162.408 67.9993 162.208 68.6939 161.808 69.2436C161.407 69.7933 160.859 70.2045 160.165 70.4773C159.47 70.75 158.682 70.8864 157.8 70.8864ZM157.819 65.044C158.309 65.044 158.727 64.9247 159.072 64.6861C159.417 64.4474 159.679 64.1044 159.858 63.657C160.037 63.2095 160.126 62.6726 160.126 62.0462C160.126 61.4283 160.037 60.8871 159.858 60.4226C159.683 59.9581 159.423 59.598 159.078 59.3423C158.737 59.0824 158.317 58.9524 157.819 58.9524C157.303 58.9524 156.873 59.0866 156.528 59.3551C156.183 59.6236 155.923 59.9922 155.748 60.4609C155.573 60.9254 155.486 61.4538 155.486 62.0462C155.486 62.647 155.573 63.1733 155.748 63.625C155.927 64.0724 156.189 64.4219 156.534 64.6733C156.884 64.9205 157.312 65.044 157.819 65.044ZM172.79 67.1982C172.168 67.1982 171.607 67.0874 171.109 66.8658C170.615 66.6399 170.223 66.3075 169.933 65.8686C169.647 65.4297 169.504 64.8885 169.504 64.245C169.504 63.6911 169.607 63.233 169.811 62.8707C170.016 62.5085 170.295 62.2188 170.649 62.0014C171.002 61.7841 171.401 61.62 171.844 61.5092C172.291 61.3942 172.754 61.3111 173.231 61.2599C173.806 61.2003 174.273 61.147 174.631 61.1001C174.989 61.049 175.249 60.9723 175.411 60.87C175.577 60.7635 175.66 60.5994 175.66 60.3778V60.3395C175.66 59.858 175.517 59.4851 175.232 59.2209C174.946 58.9567 174.535 58.8246 173.998 58.8246C173.431 58.8246 172.982 58.9482 172.649 59.1953C172.321 59.4425 172.1 59.7344 171.985 60.071L169.824 59.7642C169.995 59.1676 170.276 58.669 170.668 58.2685C171.06 57.8636 171.539 57.5611 172.106 57.3608C172.673 57.1562 173.299 57.054 173.985 57.054C174.458 57.054 174.929 57.1094 175.398 57.2202C175.867 57.331 176.295 57.5142 176.683 57.7699C177.071 58.0213 177.382 58.3643 177.616 58.799C177.855 59.2337 177.974 59.777 177.974 60.429V67H175.75V65.6513H175.673C175.532 65.924 175.334 66.1797 175.078 66.4183C174.827 66.6527 174.509 66.8423 174.126 66.9872C173.747 67.1278 173.301 67.1982 172.79 67.1982ZM173.391 65.4979C173.855 65.4979 174.258 65.4062 174.599 65.223C174.94 65.0355 175.202 64.7884 175.385 64.4815C175.573 64.1747 175.666 63.8402 175.666 63.478V62.321C175.594 62.3807 175.47 62.4361 175.296 62.4872C175.125 62.5384 174.933 62.5831 174.72 62.6214C174.507 62.6598 174.296 62.6939 174.088 62.7237C173.879 62.7536 173.698 62.7791 173.544 62.8004C173.199 62.8473 172.89 62.924 172.617 63.0305C172.345 63.1371 172.129 63.2862 171.972 63.478C171.814 63.6655 171.735 63.9084 171.735 64.2067C171.735 64.6328 171.891 64.9545 172.202 65.1719C172.513 65.3892 172.909 65.4979 173.391 65.4979ZM182.975 61.2472V67H180.661V57.1818H182.872V58.8501H182.987C183.213 58.3004 183.573 57.8636 184.068 57.5398C184.566 57.2159 185.182 57.054 185.915 57.054C186.592 57.054 187.183 57.1989 187.685 57.4886C188.193 57.7784 188.585 58.1982 188.862 58.7479C189.143 59.2976 189.281 59.9645 189.277 60.7486V67H186.963V61.1065C186.963 60.4503 186.793 59.9368 186.452 59.5661C186.115 59.1953 185.649 59.0099 185.052 59.0099C184.647 59.0099 184.287 59.0994 183.972 59.2784C183.661 59.4531 183.416 59.7067 183.237 60.0391C183.062 60.3714 182.975 60.7741 182.975 61.2472ZM195.633 67.1726C194.862 67.1726 194.171 66.9744 193.562 66.5781C192.952 66.1818 192.471 65.6065 192.117 64.8523C191.764 64.098 191.587 63.1818 191.587 62.1037C191.587 61.0128 191.766 60.0923 192.124 59.3423C192.486 58.5881 192.974 58.0192 193.587 57.6357C194.201 57.2479 194.885 57.054 195.639 57.054C196.215 57.054 196.688 57.152 197.058 57.348C197.429 57.5398 197.723 57.772 197.94 58.0447C198.158 58.3132 198.326 58.5668 198.445 58.8054H198.541V53.9091H200.862V67H198.586V65.4531H198.445C198.326 65.6918 198.153 65.9453 197.928 66.2138C197.702 66.478 197.403 66.7038 197.033 66.8913C196.662 67.0788 196.195 67.1726 195.633 67.1726ZM196.278 65.2741C196.769 65.2741 197.186 65.142 197.531 64.8778C197.876 64.6094 198.139 64.2365 198.318 63.7592C198.496 63.282 198.586 62.7259 198.586 62.0909C198.586 61.456 198.496 60.9041 198.318 60.4354C198.143 59.9666 197.883 59.6023 197.538 59.3423C197.197 59.0824 196.777 58.9524 196.278 58.9524C195.763 58.9524 195.332 59.0866 194.987 59.3551C194.642 59.6236 194.382 59.9943 194.207 60.4673C194.033 60.9403 193.945 61.4815 193.945 62.0909C193.945 62.7045 194.033 63.2521 194.207 63.7337C194.386 64.2109 194.648 64.5881 194.994 64.8651C195.343 65.1378 195.771 65.2741 196.278 65.2741ZM212.795 67.1918C211.815 67.1918 210.973 66.9766 210.27 66.5462C209.571 66.1158 209.032 65.5213 208.653 64.7628C208.278 64 208.09 63.1222 208.09 62.1293C208.09 61.1321 208.282 60.2521 208.666 59.4893C209.049 58.7223 209.59 58.1257 210.289 57.6996C210.992 57.2692 211.823 57.054 212.782 57.054C213.579 57.054 214.284 57.201 214.898 57.495C215.516 57.7848 216.008 58.196 216.374 58.7287C216.741 59.2571 216.95 59.875 217.001 60.5824H214.789C214.7 60.1094 214.487 59.7152 214.15 59.3999C213.818 59.0803 213.372 58.9205 212.814 58.9205C212.341 58.9205 211.925 59.0483 211.568 59.304C211.21 59.5554 210.93 59.9176 210.73 60.3906C210.534 60.8636 210.436 61.4304 210.436 62.0909C210.436 62.7599 210.534 63.3352 210.73 63.8168C210.926 64.294 211.201 64.6626 211.555 64.9226C211.913 65.1783 212.332 65.3061 212.814 65.3061C213.155 65.3061 213.46 65.2422 213.728 65.1143C214.001 64.9822 214.229 64.7926 214.412 64.5455C214.595 64.2983 214.721 63.9979 214.789 63.6442H217.001C216.945 64.3388 216.741 64.9545 216.387 65.4915C216.033 66.0241 215.552 66.4418 214.943 66.7443C214.333 67.0426 213.617 67.1918 212.795 67.1918ZM223.543 67.1918C222.585 67.1918 221.754 66.9808 221.051 66.5589C220.347 66.1371 219.802 65.5469 219.414 64.7884C219.031 64.0298 218.839 63.1435 218.839 62.1293C218.839 61.1151 219.031 60.2266 219.414 59.4638C219.802 58.701 220.347 58.1087 221.051 57.6868C221.754 57.2649 222.585 57.054 223.543 57.054C224.502 57.054 225.333 57.2649 226.036 57.6868C226.739 58.1087 227.283 58.701 227.666 59.4638C228.054 60.2266 228.248 61.1151 228.248 62.1293C228.248 63.1435 228.054 64.0298 227.666 64.7884C227.283 65.5469 226.739 66.1371 226.036 66.5589C225.333 66.9808 224.502 67.1918 223.543 67.1918ZM223.556 65.3381C224.076 65.3381 224.511 65.1953 224.86 64.9098C225.21 64.62 225.47 64.2322 225.64 63.7464C225.815 63.2607 225.902 62.7195 225.902 62.1229C225.902 61.522 225.815 60.9787 225.64 60.4929C225.47 60.0028 225.21 59.6129 224.86 59.3232C224.511 59.0334 224.076 58.8885 223.556 58.8885C223.024 58.8885 222.58 59.0334 222.227 59.3232C221.877 59.6129 221.615 60.0028 221.44 60.4929C221.27 60.9787 221.185 61.522 221.185 62.1229C221.185 62.7195 221.27 63.2607 221.44 63.7464C221.615 64.2322 221.877 64.62 222.227 64.9098C222.58 65.1953 223.024 65.3381 223.556 65.3381ZM234.215 67.1726C233.444 67.1726 232.754 66.9744 232.144 66.5781C231.535 66.1818 231.053 65.6065 230.7 64.8523C230.346 64.098 230.169 63.1818 230.169 62.1037C230.169 61.0128 230.348 60.0923 230.706 59.3423C231.068 58.5881 231.556 58.0192 232.17 57.6357C232.784 57.2479 233.468 57.054 234.222 57.054C234.797 57.054 235.27 57.152 235.641 57.348C236.012 57.5398 236.306 57.772 236.523 58.0447C236.74 58.3132 236.909 58.5668 237.028 58.8054H237.124V53.9091H239.444V67H237.169V65.4531H237.028C236.909 65.6918 236.736 65.9453 236.51 66.2138C236.284 66.478 235.986 66.7038 235.615 66.8913C235.245 67.0788 234.778 67.1726 234.215 67.1726ZM234.861 65.2741C235.351 65.2741 235.769 65.142 236.114 64.8778C236.459 64.6094 236.721 64.2365 236.9 63.7592C237.079 63.282 237.169 62.7259 237.169 62.0909C237.169 61.456 237.079 60.9041 236.9 60.4354C236.725 59.9666 236.465 59.6023 236.12 59.3423C235.779 59.0824 235.36 58.9524 234.861 58.9524C234.345 58.9524 233.915 59.0866 233.57 59.3551C233.225 59.6236 232.965 59.9943 232.79 60.4673C232.615 60.9403 232.528 61.4815 232.528 62.0909C232.528 62.7045 232.615 63.2521 232.79 63.7337C232.969 64.2109 233.231 64.5881 233.576 64.8651C233.926 65.1378 234.354 65.2741 234.861 65.2741ZM242.27 67V57.1818H244.584V67H242.27ZM243.433 55.7884C243.067 55.7884 242.751 55.6669 242.487 55.424C242.223 55.1768 242.091 54.8807 242.091 54.5355C242.091 54.1861 242.223 53.8899 242.487 53.647C242.751 53.3999 243.067 53.2763 243.433 53.2763C243.804 53.2763 244.119 53.3999 244.379 53.647C244.643 53.8899 244.776 54.1861 244.776 54.5355C244.776 54.8807 244.643 55.1768 244.379 55.424C244.119 55.6669 243.804 55.7884 243.433 55.7884ZM249.637 61.2472V67H247.323V57.1818H249.535V58.8501H249.65C249.876 58.3004 250.236 57.8636 250.73 57.5398C251.229 57.2159 251.845 57.054 252.577 57.054C253.255 57.054 253.845 57.1989 254.348 57.4886C254.855 57.7784 255.247 58.1982 255.524 58.7479C255.805 59.2976 255.944 59.9645 255.94 60.7486V67H253.626V61.1065C253.626 60.4503 253.455 59.9368 253.114 59.5661C252.778 59.1953 252.311 59.0099 251.715 59.0099C251.31 59.0099 250.95 59.0994 250.634 59.2784C250.323 59.4531 250.078 59.7067 249.899 60.0391C249.724 60.3714 249.637 60.7741 249.637 61.2472ZM262.922 70.8864C262.091 70.8864 261.377 70.7734 260.781 70.5476C260.184 70.326 259.705 70.0277 259.342 69.6527C258.98 69.2777 258.729 68.8622 258.588 68.4062L260.672 67.9013C260.766 68.093 260.902 68.2827 261.081 68.4702C261.26 68.6619 261.501 68.8196 261.803 68.9432C262.11 69.071 262.496 69.1349 262.96 69.1349C263.616 69.1349 264.16 68.9751 264.59 68.6555C265.021 68.3402 265.236 67.8203 265.236 67.0959V65.2358H265.121C265.001 65.4744 264.827 65.7195 264.597 65.9709C264.371 66.2223 264.07 66.4332 263.695 66.6037C263.325 66.7741 262.858 66.8594 262.295 66.8594C261.541 66.8594 260.857 66.6825 260.244 66.3288C259.634 65.9709 259.148 65.4382 258.786 64.7308C258.428 64.0192 258.249 63.1286 258.249 62.0589C258.249 60.9808 258.428 60.071 258.786 59.3295C259.148 58.5838 259.636 58.0192 260.25 57.6357C260.864 57.2479 261.548 57.054 262.302 57.054C262.877 57.054 263.35 57.152 263.721 57.348C264.096 57.5398 264.394 57.772 264.616 58.0447C264.837 58.3132 265.006 58.5668 265.121 58.8054H265.249V57.1818H267.531V67.1598C267.531 67.9993 267.33 68.6939 266.93 69.2436C266.529 69.7933 265.982 70.2045 265.287 70.4773C264.592 70.75 263.804 70.8864 262.922 70.8864ZM262.941 65.044C263.431 65.044 263.849 64.9247 264.194 64.6861C264.539 64.4474 264.801 64.1044 264.98 63.657C265.159 63.2095 265.249 62.6726 265.249 62.0462C265.249 61.4283 265.159 60.8871 264.98 60.4226C264.805 59.9581 264.545 59.598 264.2 59.3423C263.859 59.0824 263.44 58.9524 262.941 58.9524C262.425 58.9524 261.995 59.0866 261.65 59.3551C261.305 59.6236 261.045 59.9922 260.87 60.4609C260.695 60.9254 260.608 61.4538 260.608 62.0462C260.608 62.647 260.695 63.1733 260.87 63.625C261.049 64.0724 261.311 64.4219 261.656 64.6733C262.006 64.9205 262.434 65.044 262.941 65.044ZM275.087 67V57.1818H277.298V58.8501H277.414C277.618 58.2876 277.957 57.8487 278.43 57.5334C278.903 57.2138 279.467 57.054 280.124 57.054C280.789 57.054 281.349 57.2159 281.805 57.5398C282.265 57.8594 282.589 58.2962 282.776 58.8501H282.879C283.096 58.3047 283.463 57.87 283.978 57.5462C284.498 57.218 285.114 57.054 285.825 57.054C286.729 57.054 287.466 57.3395 288.037 57.9105C288.608 58.4815 288.894 59.3146 288.894 60.4098V67H286.573V60.7678C286.573 60.1584 286.411 59.7131 286.088 59.4318C285.764 59.1463 285.367 59.0036 284.899 59.0036C284.34 59.0036 283.904 59.1783 283.588 59.5277C283.277 59.8729 283.122 60.3224 283.122 60.8764V67H280.852V60.6719C280.852 60.1648 280.699 59.7599 280.392 59.4574C280.09 59.1548 279.693 59.0036 279.203 59.0036C278.871 59.0036 278.568 59.0888 278.296 59.2592C278.023 59.4254 277.806 59.6619 277.644 59.9688C277.482 60.2713 277.401 60.625 277.401 61.0298V67H275.087ZM292.688 70.6818C292.372 70.6818 292.081 70.6563 291.812 70.6051C291.548 70.5582 291.337 70.5028 291.179 70.4389L291.716 68.6364C292.053 68.7344 292.353 68.7813 292.617 68.777C292.882 68.7727 293.114 68.6896 293.314 68.5277C293.519 68.37 293.691 68.1058 293.832 67.7351L294.03 67.2045L290.47 57.1818H292.924L295.187 64.5966H295.289L297.558 57.1818H300.019L296.088 68.1889C295.905 68.7088 295.662 69.1541 295.36 69.5249C295.057 69.8999 294.686 70.1854 294.247 70.3814C293.813 70.5817 293.293 70.6818 292.688 70.6818ZM310.449 67.1726C309.678 67.1726 308.987 66.9744 308.378 66.5781C307.769 66.1818 307.287 65.6065 306.933 64.8523C306.58 64.098 306.403 63.1818 306.403 62.1037C306.403 61.0128 306.582 60.0923 306.94 59.3423C307.302 58.5881 307.79 58.0192 308.403 57.6357C309.017 57.2479 309.701 57.054 310.455 57.054C311.031 57.054 311.504 57.152 311.874 57.348C312.245 57.5398 312.539 57.772 312.756 58.0447C312.974 58.3132 313.142 58.5668 313.261 58.8054H313.357V53.9091H315.678V67H313.402V65.4531H313.261C313.142 65.6918 312.97 65.9453 312.744 66.2138C312.518 66.478 312.22 66.7038 311.849 66.8913C311.478 67.0788 311.011 67.1726 310.449 67.1726ZM311.095 65.2741C311.585 65.2741 312.002 65.142 312.347 64.8778C312.693 64.6094 312.955 64.2365 313.134 63.7592C313.313 63.282 313.402 62.7259 313.402 62.0909C313.402 61.456 313.313 60.9041 313.134 60.4354C312.959 59.9666 312.699 59.6023 312.354 59.3423C312.013 59.0824 311.593 58.9524 311.095 58.9524C310.579 58.9524 310.149 59.0866 309.803 59.3551C309.458 59.6236 309.198 59.9943 309.024 60.4673C308.849 60.9403 308.761 61.4815 308.761 62.0909C308.761 62.7045 308.849 63.2521 309.024 63.7337C309.202 64.2109 309.465 64.5881 309.81 64.8651C310.159 65.1378 310.587 65.2741 311.095 65.2741ZM318.503 67V57.1818H320.747V58.8182H320.849C321.028 58.2514 321.335 57.8146 321.77 57.5078C322.209 57.1967 322.709 57.0412 323.272 57.0412C323.4 57.0412 323.542 57.0476 323.7 57.0604C323.862 57.0689 323.996 57.0838 324.103 57.1051V59.2337C324.005 59.1996 323.849 59.1697 323.636 59.1442C323.427 59.1143 323.225 59.0994 323.029 59.0994C322.607 59.0994 322.228 59.1911 321.891 59.3743C321.559 59.5533 321.297 59.8026 321.105 60.1222C320.913 60.4418 320.817 60.8104 320.817 61.228V67H318.503ZM329.942 67.1918C328.958 67.1918 328.108 66.9872 327.392 66.5781C326.68 66.1648 326.133 65.581 325.749 64.8267C325.366 64.0682 325.174 63.1754 325.174 62.1484C325.174 61.1385 325.366 60.2521 325.749 59.4893C326.137 58.7223 326.678 58.1257 327.373 57.6996C328.067 57.2692 328.883 57.054 329.821 57.054C330.426 57.054 330.997 57.152 331.534 57.348C332.075 57.5398 332.552 57.8381 332.966 58.2429C333.383 58.6477 333.712 59.1634 333.95 59.7898C334.189 60.4119 334.308 61.1534 334.308 62.0142V62.7237H326.261V61.1641H332.09C332.086 60.7209 331.99 60.3267 331.802 59.9815C331.615 59.6321 331.353 59.3572 331.016 59.157C330.684 58.9567 330.296 58.8565 329.853 58.8565C329.38 58.8565 328.964 58.9716 328.606 59.2017C328.248 59.4276 327.969 59.7259 327.769 60.0966C327.573 60.4631 327.473 60.8658 327.469 61.3047V62.6662C327.469 63.2372 327.573 63.7273 327.782 64.1364C327.991 64.5412 328.283 64.8523 328.658 65.0696C329.033 65.2827 329.472 65.3892 329.974 65.3892C330.311 65.3892 330.616 65.3423 330.888 65.2486C331.161 65.1506 331.398 65.0078 331.598 64.8203C331.798 64.6328 331.949 64.4006 332.052 64.1236L334.212 64.3665C334.076 64.9375 333.816 65.4361 333.432 65.8622C333.053 66.2841 332.567 66.6122 331.975 66.8466C331.383 67.0767 330.705 67.1918 329.942 67.1918ZM339.451 67.1982C338.829 67.1982 338.268 67.0874 337.77 66.8658C337.276 66.6399 336.884 66.3075 336.594 65.8686C336.308 65.4297 336.165 64.8885 336.165 64.245C336.165 63.6911 336.268 63.233 336.472 62.8707C336.677 62.5085 336.956 62.2188 337.31 62.0014C337.663 61.7841 338.062 61.62 338.505 61.5092C338.952 61.3942 339.415 61.3111 339.892 61.2599C340.467 61.2003 340.934 61.147 341.292 61.1001C341.65 61.049 341.91 60.9723 342.072 60.87C342.238 60.7635 342.321 60.5994 342.321 60.3778V60.3395C342.321 59.858 342.178 59.4851 341.893 59.2209C341.607 58.9567 341.196 58.8246 340.659 58.8246C340.092 58.8246 339.643 58.9482 339.31 59.1953C338.982 59.4425 338.761 59.7344 338.646 60.071L336.485 59.7642C336.656 59.1676 336.937 58.669 337.329 58.2685C337.721 57.8636 338.2 57.5611 338.767 57.3608C339.334 57.1562 339.96 57.054 340.646 57.054C341.119 57.054 341.59 57.1094 342.059 57.2202C342.528 57.331 342.956 57.5142 343.344 57.7699C343.732 58.0213 344.043 58.3643 344.277 58.799C344.516 59.2337 344.635 59.777 344.635 60.429V67H342.411V65.6513H342.334C342.193 65.924 341.995 66.1797 341.739 66.4183C341.488 66.6527 341.17 66.8423 340.787 66.9872C340.408 67.1278 339.962 67.1982 339.451 67.1982ZM340.052 65.4979C340.516 65.4979 340.919 65.4062 341.26 65.223C341.601 65.0355 341.863 64.7884 342.046 64.4815C342.234 64.1747 342.327 63.8402 342.327 63.478V62.321C342.255 62.3807 342.131 62.4361 341.957 62.4872C341.786 62.5384 341.594 62.5831 341.381 62.6214C341.168 62.6598 340.957 62.6939 340.749 62.7237C340.54 62.7536 340.359 62.7791 340.205 62.8004C339.86 62.8473 339.551 62.924 339.278 63.0305C339.006 63.1371 338.79 63.2862 338.633 63.478C338.475 63.6655 338.396 63.9084 338.396 64.2067C338.396 64.6328 338.552 64.9545 338.863 65.1719C339.174 65.3892 339.57 65.4979 340.052 65.4979ZM347.322 67V57.1818H349.533V58.8501H349.648C349.853 58.2876 350.192 57.8487 350.665 57.5334C351.138 57.2138 351.702 57.054 352.359 57.054C353.023 57.054 353.584 57.2159 354.04 57.5398C354.5 57.8594 354.824 58.2962 355.011 58.8501H355.114C355.331 58.3047 355.697 57.87 356.213 57.5462C356.733 57.218 357.349 57.054 358.06 57.054C358.964 57.054 359.701 57.3395 360.272 57.9105C360.843 58.4815 361.128 59.3146 361.128 60.4098V67H358.808V60.7678C358.808 60.1584 358.646 59.7131 358.322 59.4318C357.998 59.1463 357.602 59.0036 357.133 59.0036C356.575 59.0036 356.138 59.1783 355.823 59.5277C355.512 59.8729 355.356 60.3224 355.356 60.8764V67H353.087V60.6719C353.087 60.1648 352.934 59.7599 352.627 59.4574C352.324 59.1548 351.928 59.0036 351.438 59.0036C351.106 59.0036 350.803 59.0888 350.53 59.2592C350.258 59.4254 350.04 59.6619 349.878 59.9688C349.717 60.2713 349.636 60.625 349.636 61.0298V67H347.322ZM371.596 59.777L369.487 60.0071C369.427 59.794 369.322 59.5938 369.173 59.4062C369.028 59.2188 368.832 59.0675 368.585 58.9524C368.338 58.8374 368.036 58.7798 367.678 58.7798C367.196 58.7798 366.791 58.8842 366.463 59.093C366.139 59.3018 365.979 59.5724 365.984 59.9048C365.979 60.1903 366.084 60.4226 366.297 60.6016C366.514 60.7805 366.872 60.9276 367.371 61.0426L369.045 61.4006C369.974 61.6009 370.665 61.9183 371.116 62.353C371.572 62.7876 371.803 63.3565 371.807 64.0597C371.803 64.6776 371.621 65.223 371.264 65.696C370.91 66.1648 370.418 66.5312 369.787 66.7955C369.156 67.0597 368.432 67.1918 367.614 67.1918C366.412 67.1918 365.445 66.9403 364.712 66.4375C363.979 65.9304 363.542 65.2251 363.401 64.3217L365.658 64.1044C365.76 64.5476 365.977 64.8821 366.31 65.108C366.642 65.3338 367.075 65.4467 367.607 65.4467C368.157 65.4467 368.598 65.3338 368.93 65.108C369.267 64.8821 369.435 64.603 369.435 64.2706C369.435 63.9893 369.327 63.7571 369.109 63.5739C368.896 63.3906 368.564 63.25 368.112 63.152L366.438 62.8004C365.496 62.6044 364.799 62.2741 364.347 61.8097C363.896 61.3409 363.672 60.7486 363.676 60.0327C363.672 59.4276 363.836 58.9034 364.168 58.4602C364.505 58.0128 364.972 57.6676 365.568 57.4247C366.169 57.1776 366.862 57.054 367.646 57.054C368.796 57.054 369.702 57.299 370.362 57.7891C371.027 58.2791 371.438 58.9418 371.596 59.777Z" fill="#301453"/>
</svg>
