<svg width="361" height="58" viewBox="0 0 361 58" fill="none" xmlns="http://www.w3.org/2000/svg">
<path d="M66.4432 46V11.0909H89.1477V16.392H72.767V25.8693H87.9716V31.1705H72.767V40.6989H89.2841V46H66.4432ZM95.5994 46V11.0909H101.923V40.6989H117.298V46H95.5994ZM116.8 16.392V11.0909H144.652V16.392H133.862V46H127.589V16.392H116.8ZM179.668 28.5455C179.668 32.3068 178.963 35.5284 177.554 38.2102C176.156 40.8807 174.247 42.9261 171.827 44.3466C169.418 45.767 166.685 46.4773 163.628 46.4773C160.571 46.4773 157.832 45.767 155.412 44.3466C153.003 42.9148 151.094 40.8636 149.685 38.1932C148.287 35.5114 147.588 32.2955 147.588 28.5455C147.588 24.7841 148.287 21.5682 149.685 18.8977C151.094 16.2159 153.003 14.1648 155.412 12.7443C157.832 11.3239 160.571 10.6136 163.628 10.6136C166.685 10.6136 169.418 11.3239 171.827 12.7443C174.247 14.1648 176.156 16.2159 177.554 18.8977C178.963 21.5682 179.668 24.7841 179.668 28.5455ZM173.31 28.5455C173.31 25.8977 172.895 23.6648 172.065 21.8466C171.247 20.017 170.111 18.6364 168.656 17.7045C167.202 16.7614 165.526 16.2898 163.628 16.2898C161.73 16.2898 160.054 16.7614 158.599 17.7045C157.145 18.6364 156.003 20.017 155.173 21.8466C154.355 23.6648 153.946 25.8977 153.946 28.5455C153.946 31.1932 154.355 33.4318 155.173 35.2614C156.003 37.0795 157.145 38.4602 158.599 39.4034C160.054 40.3352 161.73 40.8011 163.628 40.8011C165.526 40.8011 167.202 40.3352 168.656 39.4034C170.111 38.4602 171.247 37.0795 172.065 35.2614C172.895 33.4318 173.31 31.1932 173.31 28.5455ZM214.334 11.0909V46H208.709L192.26 22.2216H191.97V46H185.646V11.0909H191.305L207.737 34.8864H208.044V11.0909H214.334ZM233.131 46V11.0909H239.455V27.1307H239.881L253.5 11.0909H261.222L247.722 26.7557L261.341 46H253.739L243.324 31.0341L239.455 35.6023V46H233.131ZM294.933 28.5455C294.933 32.3068 294.229 35.5284 292.82 38.2102C291.422 40.8807 289.513 42.9261 287.092 44.3466C284.683 45.767 281.95 46.4773 278.893 46.4773C275.837 46.4773 273.098 45.767 270.678 44.3466C268.268 42.9148 266.359 40.8636 264.95 38.1932C263.553 35.5114 262.854 32.2955 262.854 28.5455C262.854 24.7841 263.553 21.5682 264.95 18.8977C266.359 16.2159 268.268 14.1648 270.678 12.7443C273.098 11.3239 275.837 10.6136 278.893 10.6136C281.95 10.6136 284.683 11.3239 287.092 12.7443C289.513 14.1648 291.422 16.2159 292.82 18.8977C294.229 21.5682 294.933 24.7841 294.933 28.5455ZM288.575 28.5455C288.575 25.8977 288.161 23.6648 287.331 21.8466C286.513 20.017 285.376 18.6364 283.922 17.7045C282.467 16.7614 280.791 16.2898 278.893 16.2898C276.996 16.2898 275.32 16.7614 273.865 17.7045C272.411 18.6364 271.268 20.017 270.439 21.8466C269.621 23.6648 269.212 25.8977 269.212 28.5455C269.212 31.1932 269.621 33.4318 270.439 35.2614C271.268 37.0795 272.411 38.4602 273.865 39.4034C275.32 40.3352 276.996 40.8011 278.893 40.8011C280.791 40.8011 282.467 40.3352 283.922 39.4034C285.376 38.4602 286.513 37.0795 287.331 35.2614C288.161 33.4318 288.575 31.1932 288.575 28.5455ZM300.912 46V11.0909H307.236V40.6989H322.611V46H300.912ZM333.895 46H327.145L339.435 11.0909H347.241L359.548 46H352.798L343.474 18.25H343.202L333.895 46ZM334.116 32.3125H352.526V37.392H334.116V32.3125Z" fill="#301453"/>
<path d="M10.2279 8.55129C20.3365 5.76289 25.5019 12.7399 29.3191 16.6871L53 6V13.7987L28.7661 24.8833L25.6912 21.7328C22.7826 18.722 18.4632 12.9693 11.6062 16.2221C3.10601 21.7328 9.39782 28.0233 12.8989 31.8766C15.9862 34.8385 19.8605 38.8559 25.6912 44.8728L28.7485 47.969L53 34.3064V44.127L28.077 58C20.4248 50.1117 15.9763 45.5329 11.9245 41.6499C7.32968 36.5982 3.55759 33.8881 0.949997 28.5951C-1.96593 20.3567 2.028 11.5389 10.2279 8.55129Z" fill="#301453"/>
<path d="M53 18.709L28.7553 30.8403V38.9279L53 26.7966V18.709Z" fill="#301453"/>
</svg>
